<svg id="my-svg" width="100%" xmlns="http://www.w3.org/2000/svg" xmlns:xlink="http://www.w3.org/1999/xlink" class="flowchart" style="max-width: 3728.18px; background-color: white;" viewBox="0 0 3728.177978515625 1608.426513671875" role="graphics-document document" aria-roledescription="flowchart-v2"><style>#my-svg{font-family:"trebuchet ms",verdana,arial,sans-serif;font-size:16px;fill:#333;}@keyframes edge-animation-frame{from{stroke-dashoffset:0;}}@keyframes dash{to{stroke-dashoffset:0;}}#my-svg .edge-animation-slow{stroke-dasharray:9,5!important;stroke-dashoffset:900;animation:dash 50s linear infinite;stroke-linecap:round;}#my-svg .edge-animation-fast{stroke-dasharray:9,5!important;stroke-dashoffset:900;animation:dash 20s linear infinite;stroke-linecap:round;}#my-svg .error-icon{fill:#552222;}#my-svg .error-text{fill:#552222;stroke:#552222;}#my-svg .edge-thickness-normal{stroke-width:1px;}#my-svg .edge-thickness-thick{stroke-width:3.5px;}#my-svg .edge-pattern-solid{stroke-dasharray:0;}#my-svg .edge-thickness-invisible{stroke-width:0;fill:none;}#my-svg .edge-pattern-dashed{stroke-dasharray:3;}#my-svg .edge-pattern-dotted{stroke-dasharray:2;}#my-svg .marker{fill:#333333;stroke:#333333;}#my-svg .marker.cross{stroke:#333333;}#my-svg svg{font-family:"trebuchet ms",verdana,arial,sans-serif;font-size:16px;}#my-svg p{margin:0;}#my-svg .label{font-family:"trebuchet ms",verdana,arial,sans-serif;color:#333;}#my-svg .cluster-label text{fill:#333;}#my-svg .cluster-label span{color:#333;}#my-svg .cluster-label span p{background-color:transparent;}#my-svg .label text,#my-svg span{fill:#333;color:#333;}#my-svg .node rect,#my-svg .node circle,#my-svg .node ellipse,#my-svg .node polygon,#my-svg .node path{fill:#ECECFF;stroke:#9370DB;stroke-width:1px;}#my-svg .rough-node .label text,#my-svg .node .label text,#my-svg .image-shape .label,#my-svg .icon-shape .label{text-anchor:middle;}#my-svg .node .katex path{fill:#000;stroke:#000;stroke-width:1px;}#my-svg .rough-node .label,#my-svg .node .label,#my-svg .image-shape .label,#my-svg .icon-shape .label{text-align:center;}#my-svg .node.clickable{cursor:pointer;}#my-svg .root .anchor path{fill:#333333!important;stroke-width:0;stroke:#333333;}#my-svg .arrowheadPath{fill:#333333;}#my-svg .edgePath .path{stroke:#333333;stroke-width:1px;}#my-svg .flowchart-link{stroke:#333333;fill:none;}#my-svg .edgeLabel{background-color:rgba(232,232,232, 0.8);text-align:center;}#my-svg .edgeLabel p{background-color:rgba(232,232,232, 0.8);}#my-svg .edgeLabel rect{opacity:0.5;background-color:rgba(232,232,232, 0.8);fill:rgba(232,232,232, 0.8);}#my-svg .labelBkg{background-color:rgba(232, 232, 232, 0.5);}#my-svg .cluster rect{fill:#ffffde;stroke:#aaaa33;stroke-width:1px;}#my-svg .cluster text{fill:#333;}#my-svg .cluster span{color:#333;}#my-svg div.mermaidTooltip{position:absolute;text-align:center;max-width:200px;padding:2px;font-family:"trebuchet ms",verdana,arial,sans-serif;font-size:12px;background:hsl(80, 100%, 96.2745098039%);border:1px solid #aaaa33;border-radius:2px;pointer-events:none;z-index:100;}#my-svg .flowchartTitleText{text-anchor:middle;font-size:18px;fill:#333;}#my-svg rect.text{fill:none;stroke-width:0;}#my-svg .icon-shape,#my-svg .image-shape{background-color:rgba(232,232,232, 0.8);text-align:center;}#my-svg .icon-shape p,#my-svg .image-shape p{background-color:rgba(232,232,232, 0.8);padding:2px;}#my-svg .icon-shape .label rect,#my-svg .image-shape .label rect{opacity:0.5;background-color:rgba(232,232,232, 0.8);fill:rgba(232,232,232, 0.8);}#my-svg .label-icon{display:inline-block;height:1em;overflow:visible;vertical-align:-0.125em;}#my-svg .node .label-icon path{fill:currentColor;stroke:revert;stroke-width:revert;}#my-svg .node .neo-node{stroke:#9370DB;}#my-svg [data-look="neo"].node rect,#my-svg [data-look="neo"].cluster rect,#my-svg [data-look="neo"].node polygon{stroke:#9370DB;filter:drop-shadow(1px 2px 2px rgba(185, 185, 185, 1));}#my-svg [data-look="neo"].node path{stroke:#9370DB;stroke-width:1px;}#my-svg [data-look="neo"].node .outer-path{filter:drop-shadow(1px 2px 2px rgba(185, 185, 185, 1));}#my-svg [data-look="neo"].node .neo-line path{stroke:#9370DB;filter:none;}#my-svg [data-look="neo"].node circle{stroke:#9370DB;filter:drop-shadow(1px 2px 2px rgba(185, 185, 185, 1));}#my-svg [data-look="neo"].node circle .state-start{fill:#000000;}#my-svg [data-look="neo"].icon-shape .icon{fill:#9370DB;filter:drop-shadow(1px 2px 2px rgba(185, 185, 185, 1));}#my-svg [data-look="neo"].icon-shape .icon-neo path{stroke:#9370DB;filter:drop-shadow(1px 2px 2px rgba(185, 185, 185, 1));}#my-svg :root{--mermaid-font-family:"trebuchet ms",verdana,arial,sans-serif;}#my-svg .person&gt;*{fill:#08427b!important;stroke:#052e56!important;color:#fff!important;}#my-svg .person span{fill:#08427b!important;stroke:#052e56!important;color:#fff!important;}#my-svg .person tspan{fill:#fff!important;}#my-svg .svc&gt;*{fill:#438dd5!important;stroke:#2e6295!important;color:#fff!important;}#my-svg .svc span{fill:#438dd5!important;stroke:#2e6295!important;color:#fff!important;}#my-svg .svc tspan{fill:#fff!important;}#my-svg .data&gt;*{fill:#f3b415!important;stroke:#b28100!important;color:#000!important;}#my-svg .data span{fill:#f3b415!important;stroke:#b28100!important;color:#000!important;}#my-svg .data tspan{fill:#000!important;}#my-svg .queue&gt;*{fill:#9673a6!important;stroke:#65497c!important;color:#fff!important;}#my-svg .queue span{fill:#9673a6!important;stroke:#65497c!important;color:#fff!important;}#my-svg .queue tspan{fill:#fff!important;}#my-svg .edge&gt;*{fill:#6cb33e!important;stroke:#4a7d2b!important;color:#fff!important;}#my-svg .edge span{fill:#6cb33e!important;stroke:#4a7d2b!important;color:#fff!important;}#my-svg .edge tspan{fill:#fff!important;}#my-svg .external&gt;*{fill:#999!important;stroke:#666!important;color:#fff!important;}#my-svg .external span{fill:#999!important;stroke:#666!important;color:#fff!important;}#my-svg .external tspan{fill:#fff!important;}</style><g><marker id="my-svg_flowchart-v2-pointEnd" class="marker flowchart-v2" viewBox="0 0 10 10" refX="5" refY="5" markerUnits="userSpaceOnUse" markerWidth="8" markerHeight="8" orient="auto"><path d="M 0 0 L 10 5 L 0 10 z" class="arrowMarkerPath" style="stroke-width: 1; stroke-dasharray: 1, 0;"/></marker><marker id="my-svg_flowchart-v2-pointStart" class="marker flowchart-v2" viewBox="0 0 10 10" refX="4.5" refY="5" markerUnits="userSpaceOnUse" markerWidth="8" markerHeight="8" orient="auto"><path d="M 0 5 L 10 10 L 10 0 z" class="arrowMarkerPath" style="stroke-width: 1; stroke-dasharray: 1, 0;"/></marker><marker id="my-svg_flowchart-v2-pointEnd-margin" class="marker flowchart-v2" viewBox="0 0 11.5 14" refX="11.5" refY="7" markerUnits="userSpaceOnUse" markerWidth="10.5" markerHeight="14" orient="auto"><path d="M 0 0 L 11.5 7 L 0 14 z" class="arrowMarkerPath" style="stroke-width: 0; stroke-dasharray: 1, 0;"/></marker><marker id="my-svg_flowchart-v2-pointStart-margin" class="marker flowchart-v2" viewBox="0 0 11.5 14" refX="1" refY="7" markerUnits="userSpaceOnUse" markerWidth="11.5" markerHeight="14" orient="auto"><polygon points="0,7 11.5,14 11.5,0" class="arrowMarkerPath" style="stroke-width: 0; stroke-dasharray: 1, 0;"/></marker><marker id="my-svg_flowchart-v2-circleEnd" class="marker flowchart-v2" viewBox="0 0 10 10" refX="11" refY="5" markerUnits="userSpaceOnUse" markerWidth="11" markerHeight="11" orient="auto"><circle cx="5" cy="5" r="5" class="arrowMarkerPath" style="stroke-width: 1; stroke-dasharray: 1, 0;"/></marker><marker id="my-svg_flowchart-v2-circleStart" class="marker flowchart-v2" viewBox="0 0 10 10" refX="-1" refY="5" markerUnits="userSpaceOnUse" markerWidth="11" markerHeight="11" orient="auto"><circle cx="5" cy="5" r="5" class="arrowMarkerPath" style="stroke-width: 1; stroke-dasharray: 1, 0;"/></marker><marker id="my-svg_flowchart-v2-circleEnd-margin" class="marker flowchart-v2" viewBox="0 0 10 10" refY="5" refX="12.25" markerUnits="userSpaceOnUse" markerWidth="14" markerHeight="14" orient="auto"><circle cx="5" cy="5" r="5" class="arrowMarkerPath" style="stroke-width: 0; stroke-dasharray: 1, 0;"/></marker><marker id="my-svg_flowchart-v2-circleStart-margin" class="marker flowchart-v2" viewBox="0 0 10 10" refX="-2" refY="5" markerUnits="userSpaceOnUse" markerWidth="14" markerHeight="14" orient="auto"><circle cx="5" cy="5" r="5" class="arrowMarkerPath" style="stroke-width: 0; stroke-dasharray: 1, 0;"/></marker><marker id="my-svg_flowchart-v2-crossEnd" class="marker cross flowchart-v2" viewBox="0 0 11 11" refX="12" refY="5.2" markerUnits="userSpaceOnUse" markerWidth="11" markerHeight="11" orient="auto"><path d="M 1,1 l 9,9 M 10,1 l -9,9" class="arrowMarkerPath" style="stroke-width: 2; stroke-dasharray: 1, 0;"/></marker><marker id="my-svg_flowchart-v2-crossStart" class="marker cross flowchart-v2" viewBox="0 0 11 11" refX="-1" refY="5.2" markerUnits="userSpaceOnUse" markerWidth="11" markerHeight="11" orient="auto"><path d="M 1,1 l 9,9 M 10,1 l -9,9" class="arrowMarkerPath" style="stroke-width: 2; stroke-dasharray: 1, 0;"/></marker><marker id="my-svg_flowchart-v2-crossEnd-margin" class="marker cross flowchart-v2" viewBox="0 0 15 15" refX="17.7" refY="7.5" markerUnits="userSpaceOnUse" markerWidth="12" markerHeight="12" orient="auto"><path d="M 1,1 L 14,14 M 1,14 L 14,1" class="arrowMarkerPath" style="stroke-width: 2.5;"/></marker><marker id="my-svg_flowchart-v2-crossStart-margin" class="marker cross flowchart-v2" viewBox="0 0 15 15" refX="-3.5" refY="7.5" markerUnits="userSpaceOnUse" markerWidth="12" markerHeight="12" orient="auto"><path d="M 1,1 L 14,14 M 1,14 L 14,1" class="arrowMarkerPath" style="stroke-width: 2.5; stroke-dasharray: 1, 0;"/></marker><g class="root"><g class="clusters"><g class="cluster" id="my-svg-system" data-look="classic"><rect style="" x="257.875" y="200" width="2639.6076583862305" height="1232.4264831542969"/><g class="cluster-label" transform="translate(1489.0069541931152, 200)"><foreignObject width="177.34375" height="24"><div xmlns="http://www.w3.org/1999/xhtml" style="display: table-cell; white-space: nowrap; line-height: 1.5;"><span class="nodeLabel"><p>FoodDelivery Platform</p></span></div></foreignObject></g></g></g><g class="edgePaths"><path d="M3386.436,61.337L3263.027,74.948C3139.618,88.558,2892.8,115.779,2769.392,138.89C2645.983,162,2645.983,181,2509.295,207.694C2372.608,234.388,2099.234,268.776,1962.547,285.97L1825.859,303.165" id="my-svg-L_client_gw_0" class="edge-thickness-normal edge-pattern-solid edge-thickness-normal edge-pattern-solid flowchart-link" style=";" data-edge="true" data-et="edge" data-id="L_client_gw_0" data-points="W3sieCI6MzM4Ni40MzU3ODMzODYyMzA1LCJ5Ijo2MS4zMzczNjAyMTEwOTY5NX0seyJ4IjoyNjQ1Ljk4MjY1ODM4NjIzMDUsInkiOjE0M30seyJ4IjoyNjQ1Ljk4MjY1ODM4NjIzMDUsInkiOjIwMH0seyJ4IjoxODIxLjg5MDYyNSwieSI6MzAzLjY2MzgwNjQxOTgxNDkzfV0=" data-look="classic" marker-end="url(#my-svg_flowchart-v2-pointEnd)"/><path d="M362.809,74L362.809,85.5C362.809,97,362.809,120,362.809,141C362.809,162,362.809,181,562.036,208.486C761.263,235.972,1159.718,271.944,1358.945,289.93L1558.172,307.916" id="my-svg-L_ops_gw_0" class="edge-thickness-normal edge-pattern-solid edge-thickness-normal edge-pattern-solid flowchart-link" style=";" data-edge="true" data-et="edge" data-id="L_ops_gw_0" data-points="W3sieCI6MzYyLjgwODU5Mzc1LCJ5Ijo3NH0seyJ4IjozNjIuODA4NTkzNzUsInkiOjE0M30seyJ4IjozNjIuODA4NTkzNzUsInkiOjIwMH0seyJ4IjoxNTYyLjE1NjI1LCJ5IjozMDguMjc1NzM4NDM4MTYzOTZ9XQ==" data-look="classic" marker-end="url(#my-svg_flowchart-v2-pointEnd)"/><path d="M2948.527,957.213L2859.52,929.011C2770.512,900.809,2592.498,844.404,2503.49,786.202C2414.483,728,2414.483,668,2414.483,612C2414.483,556,2414.483,504,2316.373,460.074C2218.264,416.149,2022.045,380.298,1923.935,362.372L1825.825,344.447" id="my-svg-L_psp_gw_0" class="edge-thickness-normal edge-pattern-solid edge-thickness-normal edge-pattern-solid flowchart-link" style=";" data-edge="true" data-et="edge" data-id="L_psp_gw_0" data-points="W3sieCI6Mjk0OC41MjcyNTY5MjAxMDg0LCJ5Ijo5NTcuMjEzMjQxNTc3MTQ4NH0seyJ4IjoyNDE0LjQ4MjY1ODM4NjIzMDUsInkiOjc4OH0seyJ4IjoyNDE0LjQ4MjY1ODM4NjIzMDUsInkiOjYwOH0seyJ4IjoyNDE0LjQ4MjY1ODM4NjIzMDUsInkiOjQ1Mn0seyJ4IjoxODIxLjg5MDYyNSwieSI6MzQzLjcyNzkzOTU5MDc5MzJ9XQ==" data-look="classic" marker-end="url(#my-svg_flowchart-v2-pointEnd)"/><path d="M1692.023,395L1692.023,404.5C1692.023,414,1692.023,433,1692.023,451.333C1692.023,469.667,1692.023,487.333,1692.023,496.167L1692.023,505" id="my-svg-L_gw_catalog_0" class="edge-thickness-normal edge-pattern-solid edge-thickness-normal edge-pattern-solid flowchart-link" style=";" data-edge="true" data-et="edge" data-id="L_gw_catalog_0" data-points="W3sieCI6MTY5Mi4wMjM0Mzc1LCJ5IjozOTV9LHsieCI6MTY5Mi4wMjM0Mzc1LCJ5Ijo0NTJ9LHsieCI6MTY5Mi4wMjM0Mzc1LCJ5Ijo1MDl9XQ==" data-look="classic" marker-end="url(#my-svg_flowchart-v2-pointEnd)"/><path d="M1562.156,373.57L1530.467,386.642C1498.779,399.713,1435.401,425.857,1403.712,447.762C1372.023,469.667,1372.023,487.333,1372.023,496.167L1372.023,505" id="my-svg-L_gw_order_0" class="edge-thickness-normal edge-pattern-solid edge-thickness-normal edge-pattern-solid flowchart-link" style=";" data-edge="true" data-et="edge" data-id="L_gw_order_0" data-points="W3sieCI6MTU2Mi4xNTYyNSwieSI6MzczLjU3MDIxNDg0Mzc1fSx7IngiOjEzNzIuMDIzNDM3NSwieSI6NDUyfSx7IngiOjEzNzIuMDIzNDM3NSwieSI6NTA5fV0=" data-look="classic" marker-end="url(#my-svg_flowchart-v2-pointEnd)"/><path d="M1821.891,367.922L1859.866,381.935C1897.841,395.948,1973.791,423.974,2011.765,448.82C2049.74,473.667,2049.74,495.333,2049.74,506.167L2049.74,517" id="my-svg-L_gw_payment_0" class="edge-thickness-normal edge-pattern-solid edge-thickness-normal edge-pattern-solid flowchart-link" style=";" data-edge="true" data-et="edge" data-id="L_gw_payment_0" data-points="W3sieCI6MTgyMS44OTA2MjUsInkiOjM2Ny45MjE4Njg4MjM4NzMyfSx7IngiOjIwNDkuNzQwNDcwODg2MjMwNSwieSI6NDUyfSx7IngiOjIwNDkuNzQwNDcwODg2MjMwNSwieSI6NTIxfV0=" data-look="classic" marker-end="url(#my-svg_flowchart-v2-pointEnd)"/><path d="M1562.156,347.91L1481.435,365.259C1400.714,382.607,1239.271,417.303,1158.549,447.485C1077.828,477.667,1077.828,503.333,1077.828,516.167L1077.828,529" id="my-svg-L_gw_tracking_0" class="edge-thickness-normal edge-pattern-solid edge-thickness-normal edge-pattern-solid flowchart-link" style=";" data-edge="true" data-et="edge" data-id="L_gw_tracking_0" data-points="W3sieCI6MTU2Mi4xNTYyNSwieSI6MzQ3LjkxMDQ1MTkzNzg3Nn0seyJ4IjoxMDc3LjgyODEyNSwieSI6NDUyfSx7IngiOjEwNzcuODI4MTI1LCJ5Ijo1MzN9XQ==" data-look="classic" marker-end="url(#my-svg_flowchart-v2-pointEnd)"/><path d="M1562.023,638.783L1456.999,663.653C1351.974,688.522,1141.924,738.261,1006.184,783.552C870.444,828.842,809.012,869.685,778.297,890.106L747.581,910.527" id="my-svg-L_catalog_pg_0" class="edge-thickness-normal edge-pattern-solid edge-thickness-normal edge-pattern-solid flowchart-link" style=";" data-edge="true" data-et="edge" data-id="L_catalog_pg_0" data-points="W3sieCI6MTU2Mi4wMjM0Mzc1LCJ5Ijo2MzguNzgzNDYxMjg5NDI3NX0seyJ4Ijo5MzEuODc1LCJ5Ijo3ODh9LHsieCI6NzQ0LjI1LCJ5Ijo5MTIuNzQyMDkwNDczMjMxN31d" data-look="classic" marker-end="url(#my-svg_flowchart-v2-pointEnd)"/><path d="M1692.023,707L1692.023,720.5C1692.023,734,1692.023,761,1659.319,795.396C1626.614,829.792,1561.205,871.583,1528.501,892.479L1495.797,913.375" id="my-svg-L_catalog_redis_0" class="edge-thickness-normal edge-pattern-solid edge-thickness-normal edge-pattern-solid flowchart-link" style=";" data-edge="true" data-et="edge" data-id="L_catalog_redis_0" data-points="W3sieCI6MTY5Mi4wMjM0Mzc1LCJ5Ijo3MDd9LHsieCI6MTY5Mi4wMjM0Mzc1LCJ5Ijo3ODh9LHsieCI6MTQ5Mi40MjU3ODEyNSwieSI6OTE1LjUyODQ5ODk4NzA4MzZ9XQ==" data-look="classic" marker-end="url(#my-svg_flowchart-v2-pointEnd)"/><path d="M1822.023,631.572L1965.808,657.643C2109.593,683.715,2397.163,735.857,2628.506,789.928C2859.849,843.998,3034.966,899.997,3122.524,927.996L3210.083,955.995" id="my-svg-L_catalog_geo_0" class="edge-thickness-normal edge-pattern-solid edge-thickness-normal edge-pattern-solid flowchart-link" style=";" data-edge="true" data-et="edge" data-id="L_catalog_geo_0" data-points="W3sieCI6MTgyMi4wMjM0Mzc1LCJ5Ijo2MzEuNTcxODU3MjA0MTc2OX0seyJ4IjoyNjg0LjczMjY1ODM4NjIzMDUsInkiOjc4OH0seyJ4IjozMjEzLjg5MjU5OTk2MDA3NDcsInkiOjk1Ny4yMTMyNDE1NzcxNDg0fV0=" data-look="classic" marker-end="url(#my-svg_flowchart-v2-pointEnd)"/><path d="M1242.023,647.203L1164.207,670.669C1086.391,694.135,930.758,741.068,843.788,778.387C756.819,815.707,738.513,843.414,729.36,857.267L720.207,871.12" id="my-svg-L_order_pg_0" class="edge-thickness-normal edge-pattern-solid edge-thickness-normal edge-pattern-solid flowchart-link" style=";" data-edge="true" data-et="edge" data-id="L_order_pg_0" data-points="W3sieCI6MTI0Mi4wMjM0Mzc1LCJ5Ijo2NDcuMjAyNjQ5MTEwNjM3fSx7IngiOjc3NS4xMjUsInkiOjc4OH0seyJ4Ijo3MTguMDAxNTYxNjk0MjY3NiwieSI6ODc0LjQ1NzY4NTUyNDAwNX1d" data-look="classic" marker-end="url(#my-svg_flowchart-v2-pointEnd)"/><path d="M1372.023,707L1372.023,720.5C1372.023,734,1372.023,761,1373.13,791.339C1374.237,821.678,1376.451,855.355,1377.558,872.194L1378.665,889.033" id="my-svg-L_order_redis_0" class="edge-thickness-normal edge-pattern-solid edge-thickness-normal edge-pattern-solid flowchart-link" style=";" data-edge="true" data-et="edge" data-id="L_order_redis_0" data-points="W3sieCI6MTM3Mi4wMjM0Mzc1LCJ5Ijo3MDd9LHsieCI6MTM3Mi4wMjM0Mzc1LCJ5Ijo3ODh9LHsieCI6MTM3OC45Mjc4OTU1NDE5Nzg0LCJ5Ijo4OTMuMDI0NjI1NjMxOTQ4MX1d" data-look="classic" marker-end="url(#my-svg_flowchart-v2-pointEnd)"/><path d="M1919.74,623.656L1692.305,651.047C1464.869,678.437,1009.997,733.219,787.925,773.768C565.854,814.318,576.582,840.636,581.947,853.795L587.311,866.954" id="my-svg-L_payment_pg_0" class="edge-thickness-normal edge-pattern-solid edge-thickness-normal edge-pattern-solid flowchart-link" style=";" data-edge="true" data-et="edge" data-id="L_payment_pg_0" data-points="W3sieCI6MTkxOS43NDA0NzA4ODYyMzA1LCJ5Ijo2MjMuNjU2MjAwODQ2MTc4Mn0seyJ4Ijo1NTUuMTI1LCJ5Ijo3ODh9LHsieCI6NTg4LjgyMTEyMDMzNzUyNzgsInkiOjg3MC42NTgyMjQzNTI4MTYyfV0=" data-look="classic" marker-end="url(#my-svg_flowchart-v2-pointEnd)"/><path d="M2179.74,659.43L2233.905,680.859C2288.069,702.287,2396.397,745.143,2525.972,794.542C2655.548,843.941,2806.371,899.881,2881.783,927.852L2957.195,955.822" id="my-svg-L_payment_psp_0" class="edge-thickness-normal edge-pattern-solid edge-thickness-normal edge-pattern-solid flowchart-link" style=";" data-edge="true" data-et="edge" data-id="L_payment_psp_0" data-points="W3sieCI6MjE3OS43NDA0NzA4ODYyMzA1LCJ5Ijo2NTkuNDMwMzM3NTgwMjc0fSx7IngiOjI1MDQuNzI0ODQ1ODg2MjMwNSwieSI6Nzg4fSx7IngiOjI5NjAuOTQ1MDY4NDk1NDkwNCwieSI6OTU3LjIxMzI0MTU3NzE0ODR9XQ==" data-look="classic" marker-end="url(#my-svg_flowchart-v2-pointEnd)"/><path d="M2179.74,637.762L2289.115,662.801C2398.49,687.841,2617.24,737.921,2831.084,792.095C3044.928,846.269,3253.865,904.538,3358.333,933.672L3462.802,962.806" id="my-svg-L_payment_antifraud_0" class="edge-thickness-normal edge-pattern-solid edge-thickness-normal edge-pattern-solid flowchart-link" style=";" data-edge="true" data-et="edge" data-id="L_payment_antifraud_0" data-points="W3sieCI6MjE3OS43NDA0NzA4ODYyMzA1LCJ5Ijo2MzcuNzYxNTI2MjMyMTE0NH0seyJ4IjoyODM1Ljk5MDQ3MDg4NjIzMDUsInkiOjc4OH0seyJ4IjozNDY2LjY1NDUzMzM4NjIzMDUsInkiOjk2My44ODA5ODU2NjgxMzU4fV0=" data-look="classic" marker-end="url(#my-svg_flowchart-v2-pointEnd)"/><path d="M973.633,634.922L874.891,660.435C776.15,685.948,578.667,736.974,504.074,781.028C429.481,825.081,477.779,862.162,501.928,880.703L526.077,899.243" id="my-svg-L_tracking_pg_0" class="edge-thickness-normal edge-pattern-solid edge-thickness-normal edge-pattern-solid flowchart-link" style=";" data-edge="true" data-et="edge" data-id="L_tracking_pg_0" data-points="W3sieCI6OTczLjYzMjgxMjUsInkiOjYzNC45MjIxMzIzMTk1NDUyfSx7IngiOjM4MS4xODM1OTM3NSwieSI6Nzg4fSx7IngiOjUyOS4yNSwieSI6OTAxLjY3OTIxOTI4ODk4NDV9XQ==" data-look="classic" marker-end="url(#my-svg_flowchart-v2-pointEnd)"/><path d="M1077.828,683L1077.828,700.5C1077.828,718,1077.828,753,1110.533,791.396C1143.237,829.792,1208.646,871.583,1241.351,892.479L1274.055,913.375" id="my-svg-L_tracking_redis_0" class="edge-thickness-normal edge-pattern-solid edge-thickness-normal edge-pattern-solid flowchart-link" style=";" data-edge="true" data-et="edge" data-id="L_tracking_redis_0" data-points="W3sieCI6MTA3Ny44MjgxMjUsInkiOjY4M30seyJ4IjoxMDc3LjgyODEyNSwieSI6Nzg4fSx7IngiOjEyNzcuNDI1NzgxMjUsInkiOjkxNS41Mjg0OTg5ODcwODM2fV0=" data-look="classic" marker-end="url(#my-svg_flowchart-v2-pointEnd)"/><path d="M1182.023,626.647L1332.292,653.539C1482.56,680.431,1783.096,734.216,1923.4,782.041C2063.704,829.867,2043.775,871.734,2033.81,892.668L2023.846,913.602" id="my-svg-L_tracking_kafka_0" class="edge-thickness-normal edge-pattern-dotted edge-thickness-normal edge-pattern-solid flowchart-link" style=";" data-edge="true" data-et="edge" data-id="L_tracking_kafka_0" data-points="W3sieCI6MTE4Mi4wMjM0Mzc1LCJ5Ijo2MjYuNjQ2OTE2NzI1NTY5Nn0seyJ4IjoyMDgzLjYzMjgxMjUsInkiOjc4OH0seyJ4IjoyMDIyLjEyNjcxMTY0ODQ2MSwieSI6OTE3LjIxMzI0MTU3NzE0ODR9XQ==" data-look="classic" marker-end="url(#my-svg_flowchart-v2-pointEnd)"/><path d="M158.762,647L186.374,670.5C213.986,694,269.21,741,330.958,785.946C392.706,830.892,460.978,873.784,495.114,895.23L529.25,916.676" id="my-svg-L_outbox_pg_0" class="edge-thickness-normal edge-pattern-dotted edge-thickness-normal edge-pattern-solid flowchart-link" style=";" data-edge="true" data-et="edge" data-id="L_outbox_pg_0" data-points="W3sieCI6MTU4Ljc2MTY1MzY0NTgzMzM1LCJ5Ijo2NDd9LHsieCI6MzI0LjQzMzU5Mzc1LCJ5Ijo3ODh9LHsieCI6NTI5LjI1LCJ5Ijo5MTYuNjc2MjA4NDY3NjU3NX1d" data-look="classic"/><path d="M217.875,618.602L497.327,646.835C776.779,675.068,1335.682,731.534,1625.261,780.702C1914.841,829.871,1935.095,871.742,1945.223,892.677L1955.35,913.612" id="my-svg-L_outbox_kafka_0" class="edge-thickness-normal edge-pattern-solid edge-thickness-normal edge-pattern-solid flowchart-link" style=";" data-edge="true" data-et="edge" data-id="L_outbox_kafka_0" data-points="W3sieCI6MjE3Ljg3NSwieSI6NjE4LjYwMTgzOTA2MjMxNX0seyJ4IjoxODk0LjU4NTkzNzUsInkiOjc4OH0seyJ4IjoxOTU3LjA5MjAzODM1MTUzODgsInkiOjkxNy4yMTMyNDE1NzcxNDg0fV0=" data-look="classic" marker-end="url(#my-svg_flowchart-v2-pointEnd)"/><path d="M1863.523,1290.466L1747.203,1270.126C1630.883,1249.786,1398.242,1209.106,1401.926,1162.024C1405.611,1114.941,1645.62,1061.455,1765.625,1034.712L1885.629,1007.97" id="my-svg-L_notify_kafka_0" class="edge-thickness-normal edge-pattern-dotted edge-thickness-normal edge-pattern-solid flowchart-link" style=";" data-edge="true" data-et="edge" data-id="L_notify_kafka_0" data-points="W3sieCI6MTg2My41MjM0Mzc1LCJ5IjoxMjkwLjQ2NjMwODk3NTYyMTR9LHsieCI6MTE2NS42MDE1NjI1LCJ5IjoxMTY4LjQyNjQ4MzE1NDI5Njl9LHsieCI6MTg4OS41MzM0ODgxNDg4Mzc1LCJ5IjoxMDA3LjA5OTU1NDQyMTcwNDJ9XQ==" data-look="classic" marker-end="url(#my-svg_flowchart-v2-pointEnd)"/><path d="M1989.109,1387.426L1989.109,1394.926C1989.109,1402.426,1989.109,1417.426,1989.109,1434.426C1989.109,1451.426,1989.109,1470.426,1989.109,1488.76C1989.109,1507.093,1989.109,1524.76,1989.109,1533.593L1989.109,1542.426" id="my-svg-L_notify_push_0" class="edge-thickness-normal edge-pattern-solid edge-thickness-normal edge-pattern-solid flowchart-link" style=";" data-edge="true" data-et="edge" data-id="L_notify_push_0" data-points="W3sieCI6MTk4OS4xMDkzNzUsInkiOjEzODcuNDI2NDgzMTU0Mjk2OX0seyJ4IjoxOTg5LjEwOTM3NSwieSI6MTQzMi40MjY0ODMxNTQyOTY5fSx7IngiOjE5ODkuMTA5Mzc1LCJ5IjoxNDg5LjQyNjQ4MzE1NDI5Njl9LHsieCI6MTk4OS4xMDkzNzUsInkiOjE1NDYuNDI2NDgzMTU0Mjk2OX1d" data-look="classic" marker-end="url(#my-svg_flowchart-v2-pointEnd)"/><path d="M2033.9,1051.733L2046.724,1071.182C2059.549,1090.631,2085.198,1129.529,2088.731,1159.968C2092.264,1190.408,2073.681,1212.39,2064.389,1223.381L2055.097,1234.372" id="my-svg-L_kafka_notify_0" class="edge-thickness-normal edge-pattern-dotted edge-thickness-normal edge-pattern-solid flowchart-link" style=";" data-edge="true" data-et="edge" data-id="L_kafka_notify_0" data-points="W3sieCI6MjAzMy44OTk1NDI1NDUxOTA4LCJ5IjoxMDUxLjczMjcxMzU5MzAxOTV9LHsieCI6MjExMC44NDc2NTYyNSwieSI6MTE2OC40MjY0ODMxNTQyOTY5fSx7IngiOjIwNTIuNTE0NzI5ODE3NzA4NSwieSI6MTIzNy40MjY0ODMxNTQyOTY5fV0=" data-look="classic" marker-end="url(#my-svg_flowchart-v2-pointEnd)"/><path d="M3571.698,86L3585.16,95.5C3598.621,105,3625.544,124,3639.006,143C3652.467,162,3652.467,181,3652.467,210.5C3652.467,240,3652.467,280,3652.467,322C3652.467,364,3652.467,408,3652.467,456C3652.467,504,3652.467,556,3652.467,612C3652.467,668,3652.467,728,3652.467,790.702C3652.467,853.404,3652.467,918.809,3652.467,982.213C3652.467,1045.618,3652.467,1107.022,3652.467,1156.558C3652.467,1206.093,3652.467,1243.76,3652.467,1262.593L3652.467,1281.426" id="my-svg-L_client_cdn_0" class="edge-thickness-normal edge-pattern-dotted edge-thickness-normal edge-pattern-solid flowchart-link" style=";" data-edge="true" data-et="edge" data-id="L_client_cdn_0" data-points="W3sieCI6MzU3MS42OTg0Nzg2OTg3MzA1LCJ5Ijo4Nn0seyJ4IjozNjUyLjQ2NzAzMzM4NjIzMDUsInkiOjE0M30seyJ4IjozNjUyLjQ2NzAzMzM4NjIzMDUsInkiOjIwMH0seyJ4IjozNjUyLjQ2NzAzMzM4NjIzMDUsInkiOjMyMH0seyJ4IjozNjUyLjQ2NzAzMzM4NjIzMDUsInkiOjQ1Mn0seyJ4IjozNjUyLjQ2NzAzMzM4NjIzMDUsInkiOjYwOH0seyJ4IjozNjUyLjQ2NzAzMzM4NjIzMDUsInkiOjc4OH0seyJ4IjozNjUyLjQ2NzAzMzM4NjIzMDUsInkiOjk4NC4yMTMyNDE1NzcxNDg0fSx7IngiOjM2NTIuNDY3MDMzMzg2MjMwNSwieSI6MTE2OC40MjY0ODMxNTQyOTY5fSx7IngiOjM2NTIuNDY3MDMzMzg2MjMwNSwieSI6MTI4NS40MjY0ODMxNTQyOTY5fV0=" data-look="classic" marker-end="url(#my-svg_flowchart-v2-pointEnd)"/><path d="M2306.623,1061.768L2306.623,1079.544C2306.623,1097.321,2306.623,1132.874,2522.312,1173.728C2738.001,1214.582,3169.378,1260.738,3385.067,1283.816L3600.755,1306.894" id="my-svg-L_s3_cdn_0" class="edge-thickness-normal edge-pattern-solid edge-thickness-normal edge-pattern-solid flowchart-link" style=";" data-edge="true" data-et="edge" data-id="L_s3_cdn_0" data-points="W3sieCI6MjMwNi42MjMyODMzODYyMzA1LCJ5IjoxMDYxLjc2NzYyMzkwMTM2NzJ9LHsieCI6MjMwNi42MjMyODMzODYyMzA1LCJ5IjoxMTY4LjQyNjQ4MzE1NDI5Njl9LHsieCI6MzYwNC43MzI2NTgzODYyMzA1LCJ5IjoxMzA3LjMxOTA5MjM0NDYyODJ9XQ==" data-look="classic" marker-end="url(#my-svg_flowchart-v2-pointEnd)"/><path d="M1502.023,633.037L1636.123,658.865C1770.223,684.692,2038.423,736.346,2172.523,781.283C2306.623,826.22,2306.623,864.439,2306.623,883.549L2306.623,902.659" id="my-svg-L_order_s3_0" class="edge-thickness-normal edge-pattern-dotted edge-thickness-normal edge-pattern-solid flowchart-link" style=";" data-edge="true" data-et="edge" data-id="L_order_s3_0" data-points="W3sieCI6MTUwMi4wMjM0Mzc1LCJ5Ijo2MzMuMDM3NDUzMzA0NzQ2N30seyJ4IjoyMzA2LjYyMzI4MzM4NjIzMDUsInkiOjc4OH0seyJ4IjoyMzA2LjYyMzI4MzM4NjIzMDUsInkiOjkwNi42NTg4NTkyNTI5Mjk3fV0=" data-look="classic" marker-end="url(#my-svg_flowchart-v2-pointEnd)"/></g><g class="edgeLabels"><g class="edgeLabel" transform="translate(2645.9826583862305, 143)"><g class="label" data-id="L_client_gw_0" transform="translate(-25.5546875, -12)"><foreignObject width="51.109375" height="24"><div xmlns="http://www.w3.org/1999/xhtml" class="labelBkg" style="display: table-cell; white-space: nowrap; line-height: 1.5; max-width: 200px; text-align: center;"><span class="edgeLabel"><p>HTTPS</p></span></div></foreignObject></g></g><g class="edgeLabel" transform="translate(362.80859375, 143)"><g class="label" data-id="L_ops_gw_0" transform="translate(-25.5546875, -12)"><foreignObject width="51.109375" height="24"><div xmlns="http://www.w3.org/1999/xhtml" class="labelBkg" style="display: table-cell; white-space: nowrap; line-height: 1.5; max-width: 200px; text-align: center;"><span class="edgeLabel"><p>HTTPS</p></span></div></foreignObject></g></g><g class="edgeLabel" transform="translate(2414.4826583862305, 608)"><g class="label" data-id="L_psp_gw_0" transform="translate(-59.6640625, -24)"><foreignObject width="119.328125" height="48"><div xmlns="http://www.w3.org/1999/xhtml" class="labelBkg" style="display: table-cell; white-space: nowrap; line-height: 1.5; max-width: 200px; text-align: center;"><span class="edgeLabel"><p>webhook POST<br /><i>async</i></p></span></div></foreignObject></g></g><g class="edgeLabel" transform="translate(1692.0234375, 452)"><g class="label" data-id="L_gw_catalog_0" transform="translate(-41.390625, -12)"><foreignObject width="82.78125" height="24"><div xmlns="http://www.w3.org/1999/xhtml" class="labelBkg" style="display: table-cell; white-space: nowrap; line-height: 1.5; max-width: 200px; text-align: center;"><span class="edgeLabel"><p>sync HTTP</p></span></div></foreignObject></g></g><g class="edgeLabel" transform="translate(1372.0234375, 452)"><g class="label" data-id="L_gw_order_0" transform="translate(-41.390625, -12)"><foreignObject width="82.78125" height="24"><div xmlns="http://www.w3.org/1999/xhtml" class="labelBkg" style="display: table-cell; white-space: nowrap; line-height: 1.5; max-width: 200px; text-align: center;"><span class="edgeLabel"><p>sync HTTP</p></span></div></foreignObject></g></g><g class="edgeLabel" transform="translate(2049.7404708862305, 452)"><g class="label" data-id="L_gw_payment_0" transform="translate(-41.390625, -12)"><foreignObject width="82.78125" height="24"><div xmlns="http://www.w3.org/1999/xhtml" class="labelBkg" style="display: table-cell; white-space: nowrap; line-height: 1.5; max-width: 200px; text-align: center;"><span class="edgeLabel"><p>sync HTTP</p></span></div></foreignObject></g></g><g class="edgeLabel" transform="translate(1077.828125, 452)"><g class="label" data-id="L_gw_tracking_0" transform="translate(-67.2109375, -12)"><foreignObject width="134.421875" height="24"><div xmlns="http://www.w3.org/1999/xhtml" class="labelBkg" style="display: table-cell; white-space: nowrap; line-height: 1.5; max-width: 200px; text-align: center;"><span class="edgeLabel"><p>WebSocket / SSE</p></span></div></foreignObject></g></g><g class="edgeLabel" transform="translate(1137.32666, 739.3499)"><g class="label" data-id="L_catalog_pg_0" transform="translate(-36.75, -12)"><foreignObject width="73.5" height="24"><div xmlns="http://www.w3.org/1999/xhtml" class="labelBkg" style="display: table-cell; white-space: nowrap; line-height: 1.5; max-width: 200px; text-align: center;"><span class="edgeLabel"><p>sync SQL</p></span></div></foreignObject></g></g><g class="edgeLabel" transform="translate(1692.0234375, 788)"><g class="label" data-id="L_catalog_redis_0" transform="translate(-98.5078125, -12)"><foreignObject width="197.015625" height="24"><div xmlns="http://www.w3.org/1999/xhtml" class="labelBkg" style="display: table-cell; white-space: nowrap; line-height: 1.5; max-width: 200px; text-align: center;"><span class="edgeLabel"><p>sync: cache + invalidate</p></span></div></foreignObject></g></g><g class="edgeLabel" transform="translate(2526.6997, 759.34515)"><g class="label" data-id="L_catalog_geo_0" transform="translate(-89.765625, -12)"><foreignObject width="179.53125" height="24"><div xmlns="http://www.w3.org/1999/xhtml" class="labelBkg" style="display: table-cell; white-space: nowrap; line-height: 1.5; max-width: 200px; text-align: center;"><span class="edgeLabel"><p>sync REST: геокодинг</p></span></div></foreignObject></g></g><g class="edgeLabel" transform="translate(958.96846, 732.56038)"><g class="label" data-id="L_order_pg_0" transform="translate(-100, -36)"><foreignObject width="200" height="72"><div xmlns="http://www.w3.org/1999/xhtml" class="labelBkg" style="display: table; white-space: break-spaces; line-height: 1.5; max-width: 200px; text-align: center; width: 200px;"><span class="edgeLabel"><p>sync SQL<br />atomic INSERT order + outbox</p></span></div></foreignObject></g></g><g class="edgeLabel" transform="translate(1372.0234375, 788)"><g class="label" data-id="L_order_redis_0" transform="translate(-73.171875, -24)"><foreignObject width="146.34375" height="48"><div xmlns="http://www.w3.org/1999/xhtml" class="labelBkg" style="display: table-cell; white-space: nowrap; line-height: 1.5; max-width: 200px; text-align: center;"><span class="edgeLabel"><p>sync: корзина,<br />idempotency-keys</p></span></div></foreignObject></g></g><g class="edgeLabel" transform="translate(555.125, 788)"><g class="label" data-id="L_payment_pg_0" transform="translate(-100, -36)"><foreignObject width="200" height="72"><div xmlns="http://www.w3.org/1999/xhtml" class="labelBkg" style="display: table; white-space: break-spaces; line-height: 1.5; max-width: 200px; text-align: center; width: 200px;"><span class="edgeLabel"><p>sync SQL<br />atomic INSERT payment + outbox</p></span></div></foreignObject></g></g><g class="edgeLabel" transform="translate(2568.9953, 811.83807)"><g class="label" data-id="L_payment_psp_0" transform="translate(-70.2421875, -12)"><foreignObject width="140.484375" height="24"><div xmlns="http://www.w3.org/1999/xhtml" class="labelBkg" style="display: table-cell; white-space: nowrap; line-height: 1.5; max-width: 200px; text-align: center;"><span class="edgeLabel"><p>sync: инициация</p></span></div></foreignObject></g></g><g class="edgeLabel" transform="translate(2826.97478, 785.936)"><g class="label" data-id="L_payment_antifraud_0" transform="translate(-41.4921875, -12)"><foreignObject width="82.984375" height="24"><div xmlns="http://www.w3.org/1999/xhtml" class="labelBkg" style="display: table-cell; white-space: nowrap; line-height: 1.5; max-width: 200px; text-align: center;"><span class="edgeLabel"><p>sync REST</p></span></div></foreignObject></g></g><g class="edgeLabel" transform="translate(587.03976, 734.81059)"><g class="label" data-id="L_tracking_pg_0" transform="translate(-36.75, -12)"><foreignObject width="73.5" height="24"><div xmlns="http://www.w3.org/1999/xhtml" class="labelBkg" style="display: table-cell; white-space: nowrap; line-height: 1.5; max-width: 200px; text-align: center;"><span class="edgeLabel"><p>sync SQL</p></span></div></foreignObject></g></g><g class="edgeLabel" transform="translate(1077.828125, 788)"><g class="label" data-id="L_tracking_redis_0" transform="translate(-89.203125, -12)"><foreignObject width="178.40625" height="24"><div xmlns="http://www.w3.org/1999/xhtml" class="labelBkg" style="display: table-cell; white-space: nowrap; line-height: 1.5; max-width: 200px; text-align: center;"><span class="edgeLabel"><p>sync: GEO + hot-state</p></span></div></foreignObject></g></g><g class="edgeLabel" transform="translate(1703.26166, 719.92833)"><g class="label" data-id="L_tracking_kafka_0" transform="translate(-84.9921875, -24)"><foreignObject width="169.984375" height="48"><div xmlns="http://www.w3.org/1999/xhtml" class="labelBkg" style="display: table-cell; white-space: nowrap; line-height: 1.5; max-width: 200px; text-align: center;"><span class="edgeLabel"><p>Kafka consumer<br /><i>order.status_updated</i></p></span></div></foreignObject></g></g><g class="edgeLabel"><g class="label" data-id="L_outbox_pg_0" transform="translate(0, 0)"><foreignObject width="0" height="0"><div xmlns="http://www.w3.org/1999/xhtml" class="labelBkg" style="display: table-cell; white-space: nowrap; line-height: 1.5; max-width: 200px; text-align: center;"><span class="edgeLabel"></span></div></foreignObject></g></g><g class="edgeLabel" transform="translate(1127.63583, 710.51501)"><g class="label" data-id="L_outbox_kafka_0" transform="translate(-84.0546875, -12)"><foreignObject width="168.109375" height="24"><div xmlns="http://www.w3.org/1999/xhtml" class="labelBkg" style="display: table-cell; white-space: nowrap; line-height: 1.5; max-width: 200px; text-align: center;"><span class="edgeLabel"><p>at-least-once publish</p></span></div></foreignObject></g></g><g class="edgeLabel" transform="translate(1181.7935, 1164.81814)"><g class="label" data-id="L_notify_kafka_0" transform="translate(-94.9921875, -24)"><foreignObject width="189.984375" height="48"><div xmlns="http://www.w3.org/1999/xhtml" class="labelBkg" style="display: table-cell; white-space: nowrap; line-height: 1.5; max-width: 200px; text-align: center;"><span class="edgeLabel"><p>Kafka consumer<br /><i>order.status, payment.*</i></p></span></div></foreignObject></g></g><g class="edgeLabel" transform="translate(1989.109375, 1489.4264831542969)"><g class="label" data-id="L_notify_push_0" transform="translate(-41.4921875, -12)"><foreignObject width="82.984375" height="24"><div xmlns="http://www.w3.org/1999/xhtml" class="labelBkg" style="display: table-cell; white-space: nowrap; line-height: 1.5; max-width: 200px; text-align: center;"><span class="edgeLabel"><p>sync REST</p></span></div></foreignObject></g></g><g class="edgeLabel" transform="translate(2097.24311, 1147.79485)"><g class="label" data-id="L_kafka_notify_0" transform="translate(-77.671875, -12)"><foreignObject width="155.34375" height="24"><div xmlns="http://www.w3.org/1999/xhtml" class="labelBkg" style="display: table-cell; white-space: nowrap; line-height: 1.5; max-width: 200px; text-align: center;"><span class="edgeLabel"><p>replay при ошибке</p></span></div></foreignObject></g></g><g class="edgeLabel" transform="translate(3652.4670333862305, 608)"><g class="label" data-id="L_client_cdn_0" transform="translate(-67.7109375, -12)"><foreignObject width="135.421875" height="24"><div xmlns="http://www.w3.org/1999/xhtml" class="labelBkg" style="display: table-cell; white-space: nowrap; line-height: 1.5; max-width: 200px; text-align: center;"><span class="edgeLabel"><p>прямая раздача</p></span></div></foreignObject></g></g><g class="edgeLabel" transform="translate(2306.6232833862305, 1168.4264831542969)"><g class="label" data-id="L_s3_cdn_0" transform="translate(-40.75, -12)"><foreignObject width="81.5" height="24"><div xmlns="http://www.w3.org/1999/xhtml" class="labelBkg" style="display: table-cell; white-space: nowrap; line-height: 1.5; max-width: 200px; text-align: center;"><span class="edgeLabel"><p>pull / sync</p></span></div></foreignObject></g></g><g class="edgeLabel" transform="translate(2306.6232833862305, 788)"><g class="label" data-id="L_order_s3_0" transform="translate(-87.859375, -12)"><foreignObject width="175.71875" height="24"><div xmlns="http://www.w3.org/1999/xhtml" class="labelBkg" style="display: table-cell; white-space: nowrap; line-height: 1.5; max-width: 200px; text-align: center;"><span class="edgeLabel"><p>presigned upload URL</p></span></div></foreignObject></g></g></g><g class="nodes"><g class="node default person" id="my-svg-flowchart-client-0" data-look="classic" transform="translate(3516.4357833862305, 47)"><rect class="basic label-container" style="fill:#08427b !important;stroke:#052e56 !important" x="-130" y="-39" width="260" height="78"/><g class="label" style="color:#fff !important" transform="translate(-100, -24)"><rect/><foreignObject width="200" height="48"><div style="color: rgb(255, 255, 255) !important; display: table; white-space: break-spaces; line-height: 1.5; max-width: 200px; text-align: center; width: 200px;" xmlns="http://www.w3.org/1999/xhtml"><span style="color:#fff !important" class="nodeLabel"><p>Клиент / Ресторан / Курьер</p></span></div></foreignObject></g></g><g class="node default person" id="my-svg-flowchart-ops-1" data-look="classic" transform="translate(362.80859375, 47)"><rect class="basic label-container" style="fill:#08427b !important;stroke:#052e56 !important" x="-71.0625" y="-27" width="142.125" height="54"/><g class="label" style="color:#fff !important" transform="translate(-41.0625, -12)"><rect/><foreignObject width="82.125" height="24"><div style="color: rgb(255, 255, 255) !important; display: table-cell; white-space: nowrap; line-height: 1.5; max-width: 200px; text-align: center;" xmlns="http://www.w3.org/1999/xhtml"><span style="color:#fff !important" class="nodeLabel"><p>Оператор</p></span></div></foreignObject></g></g><g class="node default external" id="my-svg-flowchart-psp-2" data-look="classic" transform="translate(3033.7404708862305, 984.2132415771484)"><rect class="basic label-container" style="fill:#999 !important;stroke:#666 !important" x="-96.2578125" y="-27" width="192.515625" height="54"/><g class="label" style="color:#fff !important" transform="translate(-66.2578125, -12)"><rect/><foreignObject width="132.515625" height="24"><div style="color: rgb(255, 255, 255) !important; display: table-cell; white-space: nowrap; line-height: 1.5; max-width: 200px; text-align: center;" xmlns="http://www.w3.org/1999/xhtml"><span style="color:#fff !important" class="nodeLabel"><p>PSP / эквайринг</p></span></div></foreignObject></g></g><g class="node default external" id="my-svg-flowchart-push-3" data-look="classic" transform="translate(1989.109375, 1573.4264831542969)"><rect class="basic label-container" style="fill:#999 !important;stroke:#666 !important" x="-73.8359375" y="-27" width="147.671875" height="54"/><g class="label" style="color:#fff !important" transform="translate(-43.8359375, -12)"><rect/><foreignObject width="87.671875" height="24"><div style="color: rgb(255, 255, 255) !important; display: table-cell; white-space: nowrap; line-height: 1.5; max-width: 200px; text-align: center;" xmlns="http://www.w3.org/1999/xhtml"><span style="color:#fff !important" class="nodeLabel"><p>Push / SMS</p></span></div></foreignObject></g></g><g class="node default external" id="my-svg-flowchart-cdn-4" data-look="classic" transform="translate(3652.4670333862305, 1312.4264831542969)"><rect class="basic label-container" style="fill:#999 !important;stroke:#666 !important" x="-47.734375" y="-27" width="95.46875" height="54"/><g class="label" style="color:#fff !important" transform="translate(-17.734375, -12)"><rect/><foreignObject width="35.46875" height="24"><div style="color: rgb(255, 255, 255) !important; display: table-cell; white-space: nowrap; line-height: 1.5; max-width: 200px; text-align: center;" xmlns="http://www.w3.org/1999/xhtml"><span style="color:#fff !important" class="nodeLabel"><p>CDN</p></span></div></foreignObject></g></g><g class="node default external" id="my-svg-flowchart-geo-5" data-look="classic" transform="translate(3298.3264083862305, 984.2132415771484)"><rect class="basic label-container" style="fill:#999 !important;stroke:#666 !important" x="-108.328125" y="-27" width="216.65625" height="54"/><g class="label" style="color:#fff !important" transform="translate(-78.328125, -12)"><rect/><foreignObject width="156.65625" height="24"><div style="color: rgb(255, 255, 255) !important; display: table-cell; white-space: nowrap; line-height: 1.5; max-width: 200px; text-align: center;" xmlns="http://www.w3.org/1999/xhtml"><span style="color:#fff !important" class="nodeLabel"><p>Карты / геокодинг</p></span></div></foreignObject></g></g><g class="node default external" id="my-svg-flowchart-antifraud-6" data-look="classic" transform="translate(3539.5607833862305, 984.2132415771484)"><rect class="basic label-container" style="fill:#999 !important;stroke:#666 !important" x="-72.90625" y="-27" width="145.8125" height="54"/><g class="label" style="color:#fff !important" transform="translate(-42.90625, -12)"><rect/><foreignObject width="85.8125" height="24"><div style="color: rgb(255, 255, 255) !important; display: table-cell; white-space: nowrap; line-height: 1.5; max-width: 200px; text-align: center;" xmlns="http://www.w3.org/1999/xhtml"><span style="color:#fff !important" class="nodeLabel"><p>Антифрод</p></span></div></foreignObject></g></g><g class="node default edge" id="my-svg-flowchart-gw-7" data-look="classic" transform="translate(1692.0234375, 320)"><rect class="basic label-container" style="fill:#6cb33e !important;stroke:#4a7d2b !important" x="-129.8671875" y="-75" width="259.734375" height="150"/><g class="label" style="color:#fff !important" transform="translate(-99.8671875, -60)"><rect/><foreignObject width="199.734375" height="120"><div style="color: rgb(255, 255, 255) !important; display: table-cell; white-space: nowrap; line-height: 1.5; max-width: 200px; text-align: center;" xmlns="http://www.w3.org/1999/xhtml"><span style="color:#fff !important" class="nodeLabel"><p><b>API Gateway</b><br /><i>Envoy + Go-sidecar</i><br />TLS, JWT, rate-limit,<br />routing /api/v1/*,<br />RFC 7807 error envelope</p></span></div></foreignObject></g></g><g class="node default svc" id="my-svg-flowchart-catalog-8" data-look="classic" transform="translate(1692.0234375, 608)"><rect class="basic label-container" style="fill:#438dd5 !important;stroke:#2e6295 !important" x="-130" y="-99" width="260" height="198"/><g class="label" style="color:#fff !important" transform="translate(-100, -84)"><rect/><foreignObject width="200" height="168"><div style="color: rgb(255, 255, 255) !important; display: table; white-space: break-spaces; line-height: 1.5; max-width: 200px; text-align: center; width: 200px;" xmlns="http://www.w3.org/1999/xhtml"><span style="color:#fff !important" class="nodeLabel"><p><b>Catalog Service</b><br /><i>Go 1.22</i><br />рестораны, меню, поиск,<br />pg_trgm + PostGIS Day-1,<br />cache-aside через Redis</p></span></div></foreignObject></g></g><g class="node default svc" id="my-svg-flowchart-order-9" data-look="classic" transform="translate(1372.0234375, 608)"><rect class="basic label-container" style="fill:#438dd5 !important;stroke:#2e6295 !important" x="-130" y="-99" width="260" height="198"/><g class="label" style="color:#fff !important" transform="translate(-100, -84)"><rect/><foreignObject width="200" height="168"><div style="color: rgb(255, 255, 255) !important; display: table; white-space: break-spaces; line-height: 1.5; max-width: 200px; text-align: center; width: 200px;" xmlns="http://www.w3.org/1999/xhtml"><span style="color:#fff !important" class="nodeLabel"><p><b>Order Service</b><br /><i>Go 1.22</i><br />корзина (Redis),<br />жизненный цикл заказа,<br />idempotent POST, outbox</p></span></div></foreignObject></g></g><g class="node default svc" id="my-svg-flowchart-payment-10" data-look="classic" transform="translate(2049.7404708862305, 608)"><rect class="basic label-container" style="fill:#438dd5 !important;stroke:#2e6295 !important" x="-130" y="-87" width="260" height="174"/><g class="label" style="color:#fff !important" transform="translate(-100, -72)"><rect/><foreignObject width="200" height="144"><div style="color: rgb(255, 255, 255) !important; display: table; white-space: break-spaces; line-height: 1.5; max-width: 200px; text-align: center; width: 200px;" xmlns="http://www.w3.org/1999/xhtml"><span style="color:#fff !important" class="nodeLabel"><p><b>Payment Service</b><br /><i>Go 1.22</i><br />инициация PSP,<br />идемпотентный webhook,<br />reconciliation-worker</p></span></div></foreignObject></g></g><g class="node default svc" id="my-svg-flowchart-tracking-11" data-look="classic" transform="translate(1077.828125, 608)"><rect class="basic label-container" style="fill:#438dd5 !important;stroke:#2e6295 !important" x="-104.1953125" y="-75" width="208.390625" height="150"/><g class="label" style="color:#fff !important" transform="translate(-74.1953125, -60)"><rect/><foreignObject width="148.390625" height="120"><div style="color: rgb(255, 255, 255) !important; display: table-cell; white-space: nowrap; line-height: 1.5; max-width: 200px; text-align: center;" xmlns="http://www.w3.org/1999/xhtml"><span style="color:#fff !important" class="nodeLabel"><p><b>Tracking Service</b><br /><i>Go 1.22</i><br />WebSocket + SSE,<br />hot-state в Redis,<br />GEO курьера</p></span></div></foreignObject></g></g><g class="node default svc" id="my-svg-flowchart-notify-12" data-look="classic" transform="translate(1989.109375, 1312.4264831542969)"><rect class="basic label-container" style="fill:#438dd5 !important;stroke:#2e6295 !important" x="-125.5859375" y="-75" width="251.171875" height="150"/><g class="label" style="color:#fff !important" transform="translate(-95.5859375, -60)"><rect/><foreignObject width="191.171875" height="120"><div style="color: rgb(255, 255, 255) !important; display: table-cell; white-space: nowrap; line-height: 1.5; max-width: 200px; text-align: center;" xmlns="http://www.w3.org/1999/xhtml"><span style="color:#fff !important" class="nodeLabel"><p><b>Notification Service</b><br /><i>Go 1.22, consumer-only</i><br />Kafka → push/SMS,<br />retry + DLQ,<br />шаблоны</p></span></div></foreignObject></g></g><g class="node default data" id="my-svg-flowchart-pg-13" data-look="classic" transform="translate(636.75, 984.2132415771484)"><path d="M0,15.808823529411764 a107.5,15.808823529411764 0,0,0 215,0 a107.5,15.808823529411764 0,0,0 -215,0 l0,198.80882352941177 a107.5,15.808823529411764 0,0,0 215,0 l0,-198.80882352941177" class="basic label-container outer-path" style="fill:#f3b415 !important;stroke:#b28100 !important" transform="translate(-107.5, -115.21323529411765)"/><g class="label" style="color:#000 !important" transform="translate(-100, -74)"><rect/><foreignObject width="200" height="168"><div style="color: rgb(0, 0, 0) !important; display: table; white-space: break-spaces; line-height: 1.5; max-width: 200px; text-align: center; width: 200px;" xmlns="http://www.w3.org/1999/xhtml"><span style="color:#000 !important" class="nodeLabel"><p><b>PostgreSQL 16</b><br />Patroni HA + read-replica<br />schemas: catalog_db, orders_db<br />ACID, outbox,<br />monthly partitioning</p></span></div></foreignObject></g></g><g class="node default data" id="my-svg-flowchart-redis-14" data-look="classic" transform="translate(1384.92578125, 984.2132415771484)"><path d="M0,15.808823529411764 a107.5,15.808823529411764 0,0,0 215,0 a107.5,15.808823529411764 0,0,0 -215,0 l0,150.80882352941177 a107.5,15.808823529411764 0,0,0 215,0 l0,-150.80882352941177" class="basic label-container outer-path" style="fill:#f3b415 !important;stroke:#b28100 !important" transform="translate(-107.5, -91.21323529411765)"/><g class="label" style="color:#000 !important" transform="translate(-100, -50)"><rect/><foreignObject width="200" height="120"><div style="color: rgb(0, 0, 0) !important; display: table; white-space: break-spaces; line-height: 1.5; max-width: 200px; text-align: center; width: 200px;" xmlns="http://www.w3.org/1999/xhtml"><span style="color:#000 !important" class="nodeLabel"><p><b>Redis 7 Cluster</b><br />корзина, idempotency-keys,<br />hot-cache карточек,<br />GEO курьера, rate-limit</p></span></div></foreignObject></g></g><g class="node default queue" id="my-svg-flowchart-kafka-15" data-look="classic" transform="translate(1989.109375, 984.2132415771484)"><g class="basic label-container outer-path"><path d="M-36.421875 -67.5 C-12.158458421924585 -67.5, 12.104958156150829 -67.5, 36.421875 -67.5 C36.421875 -67.5, 36.42187499999999 -67.5, 36.42187499999999 -67.5 C38.14450975456417 -67.44475845632627, 39.867144509128345 -67.38951691265254, 40.746614848698115 -67.3613140106477 C42.35735311260082 -67.20592802752519, 43.96809137650352 -67.05054204440269, 45.053583413704146 -66.94582593306912 C45.964923883650776 -66.79848747343904, 46.876264353597406 -66.65114901380898, 49.32508243734262 -66.25524309689692 C50.5432916906972 -65.97719478437703, 51.761500944051775 -65.69914647185716, 53.543559413891735 -65.29240325513449 C55.05096447635958 -64.84501334512467, 56.55836953882742 -64.39762343511485, 57.69167971659439 -64.06126292322013 C59.11493270773917 -63.53749266607242, 60.53818569888396 -63.013722408924714, 61.75239782935775 -62.566881120856465 C63.19638449267215 -61.92767105934964, 64.64037115598656 -61.28846099784282, 65.70902739043517 -60.81539858341329 C66.5493018488189 -60.377027936695974, 67.38957630720263 -59.938657289978664, 69.54530976026578 -58.814012528328796 C70.68381149173062 -58.12384608813599, 71.82231322319545 -57.433679647943194, 73.24548083171203 -56.57094708019925 C74.01302368148016 -56.03554241459545, 74.7805665312483 -55.500137748991655, 76.79433580815709 -54.09541947608707 C77.89781456370308 -53.21542453334207, 79.00129331924907 -52.335429590597066, 80.17729168327571 -51.39760218991658 C80.98331021438405 -50.66559748604569, 81.78932874549238 -49.9335927821748, 83.38044716573533 -48.48858113159661 C84.06419126307047 -47.7825592146637, 84.7479353604056 -47.076537297730795, 86.39063980258379 -45.3803100926389 C87.01006639565527 -44.65269637004551, 87.62949298872674 -43.92508264745213, 89.19550006659202 -42.085561625464514 C90.02259997128944 -40.97732310352139, 90.84969987598686 -39.86908458157827, 91.78350218529451 -38.61787455824647 C92.557526763494 -37.4287649514304, 93.3315513416935 -36.23965534461433, 94.14401150286086 -34.99149836096045 C94.64283364097507 -34.10578914351994, 95.14165577908928 -33.22007992607944, 96.26732818017751 -31.22133459125638 C96.90746368272222 -29.89207952351671, 97.54759918526692 -28.56282445577704, 98.14472705356734 -27.3228756607616 C98.53154312358592 -26.36743248923575, 98.9183591936045 -25.411989317709903, 99.76849348835881 -23.312141173438295 C100.26805244303226 -21.80754919587225, 100.7676113977057 -20.302957218306208, 101.13195507997459 -19.20561209759471 C101.46043525902354 -17.952974810670916, 101.78891543807248 -16.700337523747123, 102.22950907227309 -15.020163042051228 C102.45631774132063 -13.855548462521282, 102.68312641036817 -12.690933882991338, 103.05664538047537 -10.772992914753123 C103.26442804103168 -9.161471630805758, 103.47221070158797 -7.5499503468583935, 103.60996512407088 -6.481554248768531 C103.71411953971688 -4.859265153151198, 103.81827395536286 -3.2369760575338646, 103.88719459354644 -2.1634814860867237 C103.88719459354644 -0.550877575163675, 103.88719459354644 1.0617263357593738, 103.88719459354644 2.1634814860867073 C103.83031077655701 3.0494928514876776, 103.77342695956759 3.9355042168886483, 103.60996512407088 6.481554248768485 C103.44386755693216 7.769774179821885, 103.27776998979344 9.057994110875287, 103.05664538047539 10.772992914753075 C102.78480237560474 12.168849290724445, 102.51295937073408 13.564705666695813, 102.22950907227309 15.020163042051214 C101.83479986428819 16.52536032015055, 101.44009065630327 18.03055759824989, 101.1319550799746 19.205612097594663 C100.81444245787439 20.161909526594272, 100.49692983577417 21.11820695559388, 99.76849348835883 23.312141173438253 C99.16007572629452 24.814944808694303, 98.55165796423022 26.317748443950354, 98.14472705356735 27.32287566076158 C97.54176976255316 28.57492937677183, 96.93881247153898 29.826983092782086, 96.26732818017751 31.221334591256365 C95.73908084197771 32.15929123107345, 95.21083350377792 33.09724787089054, 94.14401150286088 34.991498360960435 C93.32850993662454 36.24432775953186, 92.5130083703882 37.49715715810329, 91.78350218529454 38.61787455824643 C91.15659867758426 39.45786814649375, 90.52969516987396 40.297861734741076, 89.19550006659202 42.0855616254645 C88.09142933729937 43.38246592749585, 86.98735860800673 44.679370229527194, 86.39063980258382 45.38031009263886 C85.37391789076234 46.43015894101591, 84.35719597894085 47.48000778939297, 83.38044716573535 48.4885811315966 C82.45894441635977 49.32546554695283, 81.53744166698418 50.16234996230905, 80.17729168327577 51.39760218991653 C79.29715615756558 52.09948685028043, 78.4170206318554 52.80137151064432, 76.79433580815709 54.095419476087066 C75.55061340335597 54.962986385801166, 74.30689099855486 55.830553295515266, 73.24548083171206 56.570947080199225 C71.9185106805964 57.37536418394773, 70.59154052948074 58.179781287696244, 69.54530976026581 58.81401252832879 C68.20587965380983 59.51279235692094, 66.86644954735385 60.211572185513084, 65.70902739043518 60.815398583413284 C64.40495960412797 61.39267070861504, 63.10089181782076 61.9699428338168, 61.75239782935778 62.56688112085646 C60.45274835783159 63.04516414020611, 59.15309888630539 63.523447159555765, 57.691679716594436 64.06126292322011 C56.73034279101562 64.34658267657142, 55.76900586543681 64.63190242992272, 53.54355941389181 65.29240325513447 C51.891267876829936 65.66952801625892, 50.23897633976806 66.04665277738336, 49.32508243734265 66.2552430968969 C48.13622143001273 66.44744892480719, 46.947360422682806 66.63965475271749, 45.053583413704196 66.9458259330691 C43.62651711882971 67.08349330223733, 42.199450823955225 67.22116067140554, 40.746614848698115 67.3613140106477 C39.240717869796214 67.40960519571044, 37.734820890894305 67.45789638077316, 36.421875000000014 67.5 C36.42187500000001 67.5, 36.42187500000001 67.5, 36.421875 67.5 C14.112271444839127 67.5, -8.197332110321746 67.5, -36.421874999999986 67.5 C-38.001762265436014 67.44933609046147, -39.58164953087204 67.39867218092296, -40.746614848698094 67.3613140106477 C-42.201799302941616 67.22093411646219, -43.65698375718514 67.08055422227666, -45.05358341370417 66.9458259330691 C-46.553718144456944 66.70329578351958, -48.05385287520973 66.46076563397006, -49.32508243734263 66.2552430968969 C-50.428486476300854 66.00339832538896, -51.531890515259086 65.75155355388101, -53.54355941389173 65.29240325513449 C-54.42722819403829 65.03013499965907, -55.310896974184864 64.76786674418365, -57.691679716594365 64.06126292322014 C-59.1934267789672 63.50860612226927, -60.69517384134003 62.9559493213184, -61.75239782935776 62.566881120856465 C-62.65842791147806 62.165808479929275, -63.56445799359835 61.764735839002086, -65.70902739043515 60.8153985834133 C-66.82626978638544 60.232533941073946, -67.94351218233574 59.64966929873459, -69.54530976026578 58.8140125283288 C-70.63464186627472 58.15365300404016, -71.72397397228366 57.493293479751514, -73.245480831712 56.57094708019927 C-73.978614517773 56.05954475764889, -74.71174820383398 55.5481424350985, -76.79433580815707 54.09541947608708 C-77.689436801757 53.38160025332895, -78.58453779535692 52.667781030570815, -80.17729168327571 51.39760218991659 C-80.97794532667143 50.670469735119134, -81.77859897006716 49.943337280321686, -83.38044716573529 48.488581131596646 C-84.14735177151472 47.69668916209029, -84.91425637729415 46.90479719258392, -86.3906398025838 45.38031009263889 C-87.01571697050214 44.64605888330356, -87.64079413842047 43.91180767396823, -89.195500066592 42.08556162546453 C-90.21181887886758 40.72378700556379, -91.22813769114315 39.36201238566306, -91.78350218529451 38.61787455824648 C-92.29512308863463 37.83188746126717, -92.80674399197476 37.04590036428786, -94.14401150286085 34.99149836096048 C-94.69358378960956 34.015677115609606, -95.24315607635826 33.039855870258734, -96.2673281801775 31.221334591256387 C-96.82675662570455 30.05966945426828, -97.3861850712316 28.898004317280176, -98.14472705356734 27.322875660761607 C-98.63661609126488 26.107900227621084, -99.12850512896243 24.89292479448056, -99.76849348835881 23.312141173438306 C-100.10646952589337 22.294211197552947, -100.44444556342792 21.276281221667585, -101.13195507997459 19.205612097594692 C-101.39606169294655 18.198459117802514, -101.66016830591849 17.191306138010336, -102.22950907227309 15.020163042051239 C-102.54210230665515 13.415062850102803, -102.85469554103722 11.809962658154365, -103.05664538047537 10.77299291475313 C-103.21625702978484 9.535076481594054, -103.37586867909431 8.297160048434975, -103.60996512407087 6.481554248768569 C-103.66603459396421 5.608226996718377, -103.72210406385754 4.734899744668185, -103.88719459354644 2.163481486086732 C-103.88719459354644 0.45894278861450877, -103.88719459354644 -1.2455959088577147, -103.88719459354644 -2.1634814860866993 C-103.80346421866123 -3.4676496608659284, -103.71973384377603 -4.771817835645157, -103.60996512407088 -6.481554248768477 C-103.46940561340556 -7.571706056873946, -103.32884610274021 -8.661857864979416, -103.05664538047539 -10.772992914753099 C-102.88373909461441 -11.660830148892734, -102.71083280875344 -12.548667383032369, -102.22950907227309 -15.020163042051207 C-101.86310729140463 -16.417411832038987, -101.49670551053617 -17.814660622026768, -101.1319550799746 -19.205612097594656 C-100.59882800337314 -20.81130591005399, -100.06570092677168 -22.416999722513324, -99.76849348835884 -23.312141173438217 C-99.30651024797601 -24.45324870902215, -98.84452700759317 -25.59435624460609, -98.14472705356735 -27.32287566076157 C-97.6852207962703 -28.27705023589776, -97.22571453897326 -29.231224811033947, -96.26732818017751 -31.22133459125636 C-95.78037739205986 -32.08596502467345, -95.29342660394221 -32.95059545809055, -94.14401150286086 -34.991498360960456 C-93.64409172503778 -35.75950938695344, -93.1441719472147 -36.52752041294642, -91.78350218529452 -38.617874558246456 C-90.97093627715019 -39.70663884888276, -90.15837036900585 -40.795403139519074, -89.19550006659202 -42.0855616254645 C-88.49502036331229 -42.90838494336111, -87.79454066003258 -43.731208261257734, -86.39063980258382 -45.38031009263886 C-85.52092992154638 -46.27835694931919, -84.65122004050895 -47.17640380599952, -83.38044716573538 -48.488581131596575 C-82.67055752632115 -49.13328411946198, -81.9606678869069 -49.777987107327384, -80.17729168327577 -51.397602189916526 C-78.83676555593793 -52.46663610357004, -77.49623942860009 -53.53567001722356, -76.7943358081571 -54.09541947608706 C-75.61078379781569 -54.921014123360465, -74.42723178747428 -55.74660877063387, -73.24548083171207 -56.57094708019922 C-71.90473177568504 -57.383717037078824, -70.56398271965801 -58.19648699395844, -69.54530976026581 -58.814012528328774 C-68.67055010497876 -59.27037408018173, -67.79579044969171 -59.72673563203468, -65.7090273904352 -60.815398583413284 C-64.81789944913174 -61.20987448865716, -63.926771507828306 -61.60435039390102, -61.75239782935779 -62.56688112085645 C-60.49532360758432 -63.029496054735816, -59.23824938581084 -63.492110988615174, -57.69167971659445 -64.06126292322011 C-56.77623500742192 -64.33296210763518, -55.86079029824938 -64.60466129205025, -53.54355941389181 -65.29240325513446 C-52.478969787473986 -65.53538889026778, -51.41438016105615 -65.7783745254011, -49.32508243734266 -66.2552430968969 C-48.41926090539284 -66.40168929743166, -47.51343937344302 -66.54813549796641, -45.0535834137042 -66.9458259330691 C-44.03854552714674 -67.04374541722365, -43.02350764058928 -67.14166490137818, -40.74661484869812 -67.3613140106477 C-39.34238306932254 -67.40634499064093, -37.93815128994696 -67.45137597063416, -36.42187500000002 -67.5 C-36.421875000000014 -67.5, -36.42187500000001 -67.5, -36.421875 -67.5" stroke="none" stroke-width="0" fill="#9673a6" style="fill:#9673a6 !important;stroke:#65497c !important"/><path d="M-36.421875 -67.5 C-16.501048219497065 -67.5, 3.41977856100587 -67.5, 36.421875 -67.5 M-36.421875 -67.5 C-16.965944119516408 -67.5, 2.4899867609671844 -67.5, 36.421875 -67.5 M36.421875 -67.5 C36.421875 -67.5, 36.42187499999999 -67.5, 36.42187499999999 -67.5 M36.421875 -67.5 C36.421875 -67.5, 36.42187499999999 -67.5, 36.42187499999999 -67.5 M36.42187499999999 -67.5 C37.370008987786505 -67.46959518844254, 38.31814297557302 -67.43919037688508, 40.746614848698115 -67.3613140106477 M36.42187499999999 -67.5 C37.676751105854706 -67.4597585657534, 38.93162721170942 -67.41951713150681, 40.746614848698115 -67.3613140106477 M40.746614848698115 -67.3613140106477 C41.89667046500025 -67.25036952848728, 43.04672608130239 -67.13942504632685, 45.053583413704146 -66.94582593306912 M40.746614848698115 -67.3613140106477 C42.04842981382198 -67.23572948662377, 43.35024477894585 -67.11014496259982, 45.053583413704146 -66.94582593306912 M45.053583413704146 -66.94582593306912 C46.61745280557181 -66.69299165778023, 48.18132219743948 -66.44015738249132, 49.32508243734262 -66.25524309689692 M45.053583413704146 -66.94582593306912 C46.730546893993576 -66.67470748262194, 48.407510374283 -66.40358903217478, 49.32508243734262 -66.25524309689692 M49.32508243734262 -66.25524309689692 C50.22027987086276 -66.05092012440514, 51.1154773043829 -65.84659715191336, 53.543559413891735 -65.29240325513449 M49.32508243734262 -66.25524309689692 C50.95413653145128 -65.88342213048806, 52.583190625559936 -65.5116011640792, 53.543559413891735 -65.29240325513449 M53.543559413891735 -65.29240325513449 C54.64044974956977 -64.9668519612001, 55.7373400852478 -64.64130066726574, 57.69167971659439 -64.06126292322013 M53.543559413891735 -65.29240325513449 C54.477735576428486 -65.01514467368432, 55.41191173896523 -64.73788609223415, 57.69167971659439 -64.06126292322013 M57.69167971659439 -64.06126292322013 C58.69963618273613 -63.690325626232536, 59.70759264887786 -63.319388329244944, 61.75239782935775 -62.566881120856465 M57.69167971659439 -64.06126292322013 C58.55274251889171 -63.744383852397426, 59.41380532118903 -63.42750478157472, 61.75239782935775 -62.566881120856465 M61.75239782935775 -62.566881120856465 C62.90838352375205 -62.05516054504537, 64.06436921814635 -61.54343996923427, 65.70902739043517 -60.81539858341329 M61.75239782935775 -62.566881120856465 C63.26775013020264 -61.89607960860131, 64.78310243104755 -61.22527809634616, 65.70902739043517 -60.81539858341329 M65.70902739043517 -60.81539858341329 C67.09280212838003 -60.09348418897748, 68.4765768663249 -59.371569794541664, 69.54530976026578 -58.814012528328796 M65.70902739043517 -60.81539858341329 C66.5998784785111 -60.350642141381435, 67.49072956658704 -59.88588569934957, 69.54530976026578 -58.814012528328796 M69.54530976026578 -58.814012528328796 C70.77615035437886 -58.067869726955244, 72.00699094849192 -57.3217269255817, 73.24548083171203 -56.57094708019925 M69.54530976026578 -58.814012528328796 C70.57260482190145 -58.19126022490937, 71.59989988353712 -57.568507921489946, 73.24548083171203 -56.57094708019925 M73.24548083171203 -56.57094708019925 C74.3773055087473 -55.781435181400035, 75.50913018578258 -54.99192328260082, 76.79433580815709 -54.09541947608707 M73.24548083171203 -56.57094708019925 C74.38286574857116 -55.777556598797815, 75.5202506654303 -54.984166117396384, 76.79433580815709 -54.09541947608707 M76.79433580815709 -54.09541947608707 C77.75626677021364 -53.32830513190492, 78.7181977322702 -52.56119078772277, 80.17729168327571 -51.39760218991658 M76.79433580815709 -54.09541947608707 C77.62855257095238 -53.4301538071982, 78.46276933374767 -52.76488813830934, 80.17729168327571 -51.39760218991658 M80.17729168327571 -51.39760218991658 C81.13009576426415 -50.5322907333774, 82.0828998452526 -49.66697927683823, 83.38044716573533 -48.48858113159661 M80.17729168327571 -51.39760218991658 C81.03206173720648 -50.62132264291297, 81.88683179113724 -49.845043095909354, 83.38044716573533 -48.48858113159661 M83.38044716573533 -48.48858113159661 C84.06129860686107 -47.78554611969139, 84.74215004798683 -47.08251110778616, 86.39063980258379 -45.3803100926389 M83.38044716573533 -48.48858113159661 C84.55051060412775 -47.2803945674616, 85.72057404252018 -46.072208003326594, 86.39063980258379 -45.3803100926389 M86.39063980258379 -45.3803100926389 C87.19018809564926 -44.4411151720175, 87.98973638871472 -43.501920251396086, 89.19550006659202 -42.085561625464514 M86.39063980258379 -45.3803100926389 C87.19299236140589 -44.43782112189251, 87.99534492022799 -43.49533215114613, 89.19550006659202 -42.085561625464514 M89.19550006659202 -42.085561625464514 C89.80491508192473 -41.269001023768695, 90.41433009725746 -40.45244042207288, 91.78350218529451 -38.61787455824647 M89.19550006659202 -42.085561625464514 C90.17772201877739 -40.76947369179678, 91.15994397096276 -39.45338575812905, 91.78350218529451 -38.61787455824647 M91.78350218529451 -38.61787455824647 C92.48898515298892 -37.534063271165714, 93.19446812068333 -36.45025198408496, 94.14401150286086 -34.99149836096045 M91.78350218529451 -38.61787455824647 C92.3640711422907 -37.72596473570666, 92.9446400992869 -36.83405491316686, 94.14401150286086 -34.99149836096045 M94.14401150286086 -34.99149836096045 C94.88384743930638 -33.677844739289206, 95.6236833757519 -32.364191117617956, 96.26732818017751 -31.22133459125638 M94.14401150286086 -34.99149836096045 C94.7462457460137 -33.92217047941273, 95.34847998916653 -32.852842597865006, 96.26732818017751 -31.22133459125638 M96.26732818017751 -31.22133459125638 C96.79570860083004 -30.124141342241504, 97.32408902148258 -29.026948093226626, 98.14472705356734 -27.3228756607616 M96.26732818017751 -31.22133459125638 C96.70567569725175 -30.311096592917373, 97.14402321432598 -29.400858594578366, 98.14472705356734 -27.3228756607616 M98.14472705356734 -27.3228756607616 C98.62341857429844 -26.140498349684805, 99.10211009502956 -24.958121038608006, 99.76849348835881 -23.312141173438295 M98.14472705356734 -27.3228756607616 C98.48669227870923 -26.478214943213263, 98.82865750385112 -25.63355422566493, 99.76849348835881 -23.312141173438295 M99.76849348835881 -23.312141173438295 C100.16897516276411 -22.10595417821906, 100.5694568371694 -20.899767182999824, 101.13195507997459 -19.20561209759471 M99.76849348835881 -23.312141173438295 C100.24132698766513 -21.88804200931497, 100.71416048697147 -20.46394284519164, 101.13195507997459 -19.20561209759471 M101.13195507997459 -19.20561209759471 C101.37197127768488 -18.290326312047252, 101.61198747539517 -17.3750405264998, 102.22950907227309 -15.020163042051228 M101.13195507997459 -19.20561209759471 C101.53532903222097 -17.66737239430245, 101.93870298446735 -16.129132691010195, 102.22950907227309 -15.020163042051228 M102.22950907227309 -15.020163042051228 C102.54268935633218 -13.412048474084322, 102.85586964039125 -11.803933906117415, 103.05664538047537 -10.772992914753123 M102.22950907227309 -15.020163042051228 C102.40168897720932 -14.136055620439473, 102.57386888214555 -13.25194819882772, 103.05664538047537 -10.772992914753123 M103.05664538047537 -10.772992914753123 C103.17620735467123 -9.84569385307239, 103.29576932886708 -8.918394791391657, 103.60996512407088 -6.481554248768531 M103.05664538047537 -10.772992914753123 C103.18483260926108 -9.778798081722686, 103.31301983804678 -8.784603248692246, 103.60996512407088 -6.481554248768531 M103.60996512407088 -6.481554248768531 C103.67749654616921 -5.429697839204388, 103.74502796826752 -4.377841429640244, 103.88719459354644 -2.1634814860867237 M103.60996512407088 -6.481554248768531 C103.69336252614342 -5.182572394317409, 103.77675992821597 -3.8835905398662884, 103.88719459354644 -2.1634814860867237 M103.88719459354644 -2.1634814860867237 C103.88719459354644 -1.2147046043298453, 103.88719459354644 -0.2659277225729668, 103.88719459354644 2.1634814860867073 M103.88719459354644 -2.1634814860867237 C103.88719459354644 -0.6982385087415164, 103.88719459354644 0.767004468603691, 103.88719459354644 2.1634814860867073 M103.88719459354644 2.1634814860867073 C103.81807252745008 3.2401134598649604, 103.74895046135373 4.316745433643214, 103.60996512407088 6.481554248768485 M103.88719459354644 2.1634814860867073 C103.81360569689161 3.3096879513739275, 103.74001680023677 4.455894416661147, 103.60996512407088 6.481554248768485 M103.60996512407088 6.481554248768485 C103.40114863145077 8.101093730049588, 103.19233213883065 9.720633211330691, 103.05664538047539 10.772992914753075 M103.60996512407088 6.481554248768485 C103.38929334735339 8.193040972418205, 103.1686215706359 9.904527696067925, 103.05664538047539 10.772992914753075 M103.05664538047539 10.772992914753075 C102.77859397039518 12.200728139328577, 102.50054256031498 13.62846336390408, 102.22950907227309 15.020163042051214 M103.05664538047539 10.772992914753075 C102.79081607087329 12.13797023651533, 102.52498676127121 13.502947558277583, 102.22950907227309 15.020163042051214 M102.22950907227309 15.020163042051214 C101.99726671526413 15.905803803800627, 101.76502435825516 16.79144456555004, 101.1319550799746 19.205612097594663 M102.22950907227309 15.020163042051214 C101.83660834413496 16.51846380269465, 101.44370761599683 18.016764563338086, 101.1319550799746 19.205612097594663 M101.1319550799746 19.205612097594663 C100.65338383495404 20.64699243762363, 100.1748125899335 22.088372777652594, 99.76849348835883 23.312141173438253 M101.1319550799746 19.205612097594663 C100.72465736919408 20.432327908388192, 100.31735965841354 21.65904371918172, 99.76849348835883 23.312141173438253 M99.76849348835883 23.312141173438253 C99.43111213214009 24.14547964612335, 99.09373077592133 24.978818118808444, 98.14472705356735 27.32287566076158 M99.76849348835883 23.312141173438253 C99.31539368764767 24.431306441283542, 98.8622938869365 25.550471709128832, 98.14472705356735 27.32287566076158 M98.14472705356735 27.32287566076158 C97.56413656931444 28.528484223959047, 96.98354608506152 29.734092787156513, 96.26732818017751 31.221334591256365 M98.14472705356735 27.32287566076158 C97.45572638346678 28.753600294478094, 96.7667257133662 30.184324928194606, 96.26732818017751 31.221334591256365 M96.26732818017751 31.221334591256365 C95.67515419228313 32.2727994708814, 95.08298020438876 33.32426435050643, 94.14401150286088 34.991498360960435 M96.26732818017751 31.221334591256365 C95.43598191912947 32.69747406068459, 94.60463565808142 34.17361353011282, 94.14401150286088 34.991498360960435 M94.14401150286088 34.991498360960435 C93.53678098021666 35.92436750796841, 92.92955045757246 36.8572366549764, 91.78350218529454 38.61787455824643 M94.14401150286088 34.991498360960435 C93.27584415747431 36.3252365390485, 92.40767681208773 37.658974717136566, 91.78350218529454 38.61787455824643 M91.78350218529454 38.61787455824643 C91.23798813142659 39.3488136930768, 90.69247407755864 40.07975282790717, 89.19550006659202 42.0855616254645 M91.78350218529454 38.61787455824643 C90.7559637621103 39.994682434637205, 89.72842533892604 41.37149031102799, 89.19550006659202 42.0855616254645 M89.19550006659202 42.0855616254645 C88.10636772268877 43.364918449999244, 87.01723537878553 44.644275274533996, 86.39063980258382 45.38031009263886 M89.19550006659202 42.0855616254645 C88.17033500730751 43.28977883764448, 87.14516994802301 44.493996049824446, 86.39063980258382 45.38031009263886 M86.39063980258382 45.38031009263886 C85.23357013522194 46.5750795213764, 84.07650046786006 47.769848950113946, 83.38044716573535 48.4885811315966 M86.39063980258382 45.38031009263886 C85.48784682381425 46.31251796390045, 84.5850538450447 47.244725835162036, 83.38044716573535 48.4885811315966 M83.38044716573535 48.4885811315966 C82.47065580973926 49.314829569352064, 81.56086445374316 50.14107800710753, 80.17729168327577 51.39760218991653 M83.38044716573535 48.4885811315966 C82.10371956802045 49.64807135548014, 80.82699197030556 50.807561579363686, 80.17729168327577 51.39760218991653 M80.17729168327577 51.39760218991653 C79.05755083014411 52.29056572273351, 77.93780997701245 53.18352925555049, 76.79433580815709 54.095419476087066 M80.17729168327577 51.39760218991653 C79.20463862193024 52.17326712295459, 78.23198556058472 52.94893205599265, 76.79433580815709 54.095419476087066 M76.79433580815709 54.095419476087066 C75.74297436512462 54.82880370604318, 74.69161292209216 55.56218793599929, 73.24548083171206 56.570947080199225 M76.79433580815709 54.095419476087066 C75.45306586222762 55.03103132772731, 74.11179591629814 55.96664317936756, 73.24548083171206 56.570947080199225 M73.24548083171206 56.570947080199225 C72.0602403769448 57.28944680912518, 70.87499992217757 58.00794653805113, 69.54530976026581 58.81401252832879 M73.24548083171206 56.570947080199225 C72.15107052293101 57.234385040851166, 71.05666021414994 57.8978230015031, 69.54530976026581 58.81401252832879 M69.54530976026581 58.81401252832879 C68.03798796964828 59.60038134100826, 66.53066617903076 60.386750153687736, 65.70902739043518 60.815398583413284 M69.54530976026581 58.81401252832879 C68.23525498758171 59.497467264107954, 66.9252002148976 60.18092199988711, 65.70902739043518 60.815398583413284 M65.70902739043518 60.815398583413284 C64.66414460085703 61.27793719901285, 63.61926181127887 61.74047581461241, 61.75239782935778 62.56688112085646 M65.70902739043518 60.815398583413284 C64.87592011260469 61.18419046205951, 64.0428128347742 61.55298234070573, 61.75239782935778 62.56688112085646 M61.75239782935778 62.56688112085646 C60.34306459703031 63.08552877808655, 58.93373136470285 63.604176435316646, 57.691679716594436 64.06126292322011 M61.75239782935778 62.56688112085646 C60.9308028187803 62.86923567948999, 60.109207808202825 63.17159023812353, 57.691679716594436 64.06126292322011 M57.691679716594436 64.06126292322011 C56.0530837215183 64.54758961339282, 54.41448772644216 65.03391630356553, 53.54355941389181 65.29240325513447 M57.691679716594436 64.06126292322011 C56.77259053766719 64.33404376712818, 55.85350135873995 64.60682461103623, 53.54355941389181 65.29240325513447 M53.54355941389181 65.29240325513447 C51.884905032897265 65.67098029386511, 50.22625065190272 66.04955733259575, 49.32508243734265 66.2552430968969 M53.54355941389181 65.29240325513447 C51.949800982730615 65.6561682168013, 50.356042551569416 66.01993317846812, 49.32508243734265 66.2552430968969 M49.32508243734265 66.2552430968969 C48.01980315508029 66.46627052866107, 46.71452387281792 66.67729796042524, 45.053583413704196 66.9458259330691 M49.32508243734265 66.2552430968969 C48.278621794961424 66.42442673813362, 47.2321611525802 66.59361037937032, 45.053583413704196 66.9458259330691 M45.053583413704196 66.9458259330691 C43.731273295663165 67.07338759984593, 42.40896317762213 67.20094926662277, 40.746614848698115 67.3613140106477 M45.053583413704196 66.9458259330691 C43.74012556136472 67.07253363242012, 42.426667709025246 67.19924133177112, 40.746614848698115 67.3613140106477 M40.746614848698115 67.3613140106477 C39.506671686579615 67.4010765744539, 38.266728524461115 67.44083913826007, 36.421875000000014 67.5 M40.746614848698115 67.3613140106477 C39.464599691000124 67.40242574146396, 38.18258453330213 67.4435374722802, 36.421875000000014 67.5 M36.421875000000014 67.5 C36.42187500000001 67.5, 36.42187500000001 67.5, 36.421875 67.5 M36.421875000000014 67.5 C36.421875000000014 67.5, 36.42187500000001 67.5, 36.421875 67.5 M36.421875 67.5 C15.981155470632942 67.5, -4.4595640587341165 67.5, -36.421874999999986 67.5 M36.421875 67.5 C9.266752494384576 67.5, -17.888370011230847 67.5, -36.421874999999986 67.5 M-36.421874999999986 67.5 C-37.525562805157264 67.4646068802866, -38.62925061031454 67.42921376057319, -40.746614848698094 67.3613140106477 M-36.421874999999986 67.5 C-37.49699941985394 67.46552285245802, -38.5721238397079 67.43104570491603, -40.746614848698094 67.3613140106477 M-40.746614848698094 67.3613140106477 C-42.37826843249632 67.20391035176922, -44.00992201629454 67.04650669289074, -45.05358341370417 66.9458259330691 M-40.746614848698094 67.3613140106477 C-42.18479453414462 67.2225745460568, -43.62297421959115 67.0838350814659, -45.05358341370417 66.9458259330691 M-45.05358341370417 66.9458259330691 C-45.94706062693638 66.80137546625299, -46.84053784016859 66.65692499943688, -49.32508243734263 66.2552430968969 M-45.05358341370417 66.9458259330691 C-46.7332399913016 66.67427208353445, -48.41289656889903 66.4027182339998, -49.32508243734263 66.2552430968969 M-49.32508243734263 66.2552430968969 C-50.57641191296426 65.96963530977422, -51.827741388585885 65.68402752265153, -53.54355941389173 65.29240325513449 M-49.32508243734263 66.2552430968969 C-50.33086678009669 66.02567938401951, -51.33665112285075 65.7961156711421, -53.54355941389173 65.29240325513449 M-53.54355941389173 65.29240325513449 C-55.03115872979625 64.85089158674218, -56.51875804570078 64.40937991834987, -57.691679716594365 64.06126292322014 M-53.54355941389173 65.29240325513449 C-54.76166472030368 64.93087599415665, -55.979770026715634 64.56934873317881, -57.691679716594365 64.06126292322014 M-57.691679716594365 64.06126292322014 C-58.63900271286602 63.71263930363439, -59.58632570913767 63.364015684048645, -61.75239782935776 62.566881120856465 M-57.691679716594365 64.06126292322014 C-59.179179944710185 63.513849088972144, -60.666680172826 62.966435254724146, -61.75239782935776 62.566881120856465 M-61.75239782935776 62.566881120856465 C-63.24736616945059 61.90510298335754, -64.74233450954343 61.243324845858616, -65.70902739043515 60.8153985834133 M-61.75239782935776 62.566881120856465 C-62.98801635576799 62.01990945253595, -64.22363488217822 61.47293778421543, -65.70902739043515 60.8153985834133 M-65.70902739043515 60.8153985834133 C-66.57363657546465 60.36433252539203, -67.43824576049414 59.91326646737076, -69.54530976026578 58.8140125283288 M-65.70902739043515 60.8153985834133 C-67.074828808199 60.10286085860346, -68.44063022596286 59.39032313379362, -69.54530976026578 58.8140125283288 M-69.54530976026578 58.8140125283288 C-70.86037101255694 58.01681466903217, -72.1754322648481 57.219616809735534, -73.245480831712 56.57094708019927 M-69.54530976026578 58.8140125283288 C-70.74678516746401 58.08567107583202, -71.94826057466224 57.35732962333524, -73.245480831712 56.57094708019927 M-73.245480831712 56.57094708019927 C-74.45913373787015 55.72435535105089, -75.67278664402828 54.87776362190252, -76.79433580815707 54.09541947608708 M-73.245480831712 56.57094708019927 C-74.46443353263491 55.72065844364741, -75.68338623355781 54.87036980709555, -76.79433580815707 54.09541947608708 M-76.79433580815707 54.09541947608708 C-78.10763436710826 53.048098823665896, -79.42093292605946 52.00077817124472, -80.17729168327571 51.39760218991659 M-76.79433580815707 54.09541947608708 C-77.47837828421643 53.54991380456452, -78.1624207602758 53.00440813304195, -80.17729168327571 51.39760218991659 M-80.17729168327571 51.39760218991659 C-81.06943540268463 50.587380868778716, -81.96157912209355 49.77715954764084, -83.38044716573529 48.488581131596646 M-80.17729168327571 51.39760218991659 C-81.26314293980855 50.41146080878335, -82.34899419634138 49.425319427650116, -83.38044716573529 48.488581131596646 M-83.38044716573529 48.488581131596646 C-84.07998983854291 47.76624588840122, -84.77953251135054 47.0439106452058, -86.3906398025838 45.38031009263889 M-83.38044716573529 48.488581131596646 C-84.073344834438 47.77310740070453, -84.76624250314072 47.05763366981241, -86.3906398025838 45.38031009263889 M-86.3906398025838 45.38031009263889 C-87.40729406842192 44.18609014271892, -88.42394833426002 42.99187019279895, -89.195500066592 42.08556162546453 M-86.3906398025838 45.38031009263889 C-87.26021653801288 44.358855778885925, -88.12979327344198 43.337401465132956, -89.195500066592 42.08556162546453 M-89.195500066592 42.08556162546453 C-90.03564615245942 40.959842409285166, -90.87579223832685 39.834123193105796, -91.78350218529451 38.61787455824648 M-89.195500066592 42.08556162546453 C-90.0084378780954 40.99629901820817, -90.8213756895988 39.90703641095181, -91.78350218529451 38.61787455824648 M-91.78350218529451 38.61787455824648 C-92.44378116282984 37.603508739021045, -93.10406014036516 36.58914291979562, -94.14401150286085 34.99149836096048 M-91.78350218529451 38.61787455824648 C-92.40268762003213 37.666639455919636, -93.02187305476974 36.71540435359279, -94.14401150286085 34.99149836096048 M-94.14401150286085 34.99149836096048 C-94.89989785612468 33.649345598947356, -95.65578420938853 32.307192836934234, -96.2673281801775 31.221334591256387 M-94.14401150286085 34.99149836096048 C-94.75573313768872 33.90532465479113, -95.3674547725166 32.81915094862178, -96.2673281801775 31.221334591256387 M-96.2673281801775 31.221334591256387 C-96.72940989643052 30.261812020492126, -97.19149161268354 29.30228944972787, -98.14472705356734 27.322875660761607 M-96.2673281801775 31.221334591256387 C-97.00667956448517 29.686055622156136, -97.74603094879285 28.150776653055885, -98.14472705356734 27.322875660761607 M-98.14472705356734 27.322875660761607 C-98.59482141275275 26.211133891591185, -99.04491577193816 25.099392122420767, -99.76849348835881 23.312141173438306 M-98.14472705356734 27.322875660761607 C-98.72192175946282 25.897193577899284, -99.29911646535831 24.471511495036957, -99.76849348835881 23.312141173438306 M-99.76849348835881 23.312141173438306 C-100.29387519025582 21.7297751955309, -100.81925689215284 20.1474092176235, -101.13195507997459 19.205612097594692 M-99.76849348835881 23.312141173438306 C-100.18109497515569 22.06945123432551, -100.59369646195255 20.826761295212716, -101.13195507997459 19.205612097594692 M-101.13195507997459 19.205612097594692 C-101.51507233439763 17.744619962411242, -101.89818958882067 16.283627827227797, -102.22950907227309 15.020163042051239 M-101.13195507997459 19.205612097594692 C-101.47993576574164 17.87861092698171, -101.82791645150868 16.55160975636873, -102.22950907227309 15.020163042051239 M-102.22950907227309 15.020163042051239 C-102.48980900577247 13.683577897942317, -102.75010893927185 12.346992753833394, -103.05664538047537 10.77299291475313 M-102.22950907227309 15.020163042051239 C-102.47673100983653 13.750730643037981, -102.72395294739997 12.481298244024723, -103.05664538047537 10.77299291475313 M-103.05664538047537 10.77299291475313 C-103.26032427508127 9.193299629136765, -103.46400316968719 7.613606343520402, -103.60996512407087 6.481554248768569 M-103.05664538047537 10.77299291475313 C-103.18046463276335 9.812675244884604, -103.3042838850513 8.852357575016077, -103.60996512407087 6.481554248768569 M-103.60996512407087 6.481554248768569 C-103.71241494797718 4.885815545418346, -103.8148647718835 3.2900768420681223, -103.88719459354644 2.163481486086732 M-103.60996512407087 6.481554248768569 C-103.67420547615927 5.480958911112753, -103.73844582824769 4.480363573456935, -103.88719459354644 2.163481486086732 M-103.88719459354644 2.163481486086732 C-103.88719459354644 1.1881705196164336, -103.88719459354644 0.21285955314613503, -103.88719459354644 -2.1634814860866993 M-103.88719459354644 2.163481486086732 C-103.88719459354644 1.0335032043100838, -103.88719459354644 -0.09647507746656458, -103.88719459354644 -2.1634814860866993 M-103.88719459354644 -2.1634814860866993 C-103.79971248411498 -3.526085954769564, -103.7122303746835 -4.888690423452429, -103.60996512407088 -6.481554248768477 M-103.88719459354644 -2.1634814860866993 C-103.82635363466385 -3.1111285306212135, -103.76551267578125 -4.058775575155727, -103.60996512407088 -6.481554248768477 M-103.60996512407088 -6.481554248768477 C-103.47230904740294 -7.5491875961381005, -103.334652970735 -8.616820943507724, -103.05664538047539 -10.772992914753099 M-103.60996512407088 -6.481554248768477 C-103.44334984646318 -7.773789439985828, -103.27673456885547 -9.066024631203177, -103.05664538047539 -10.772992914753099 M-103.05664538047539 -10.772992914753099 C-102.81042193189386 -12.037298283874977, -102.56419848331232 -13.301603652996853, -102.22950907227309 -15.020163042051207 M-103.05664538047539 -10.772992914753099 C-102.7963585627376 -12.10951071219823, -102.5360717449998 -13.446028509643362, -102.22950907227309 -15.020163042051207 M-102.22950907227309 -15.020163042051207 C-101.91771645429984 -16.209163426158682, -101.60592383632657 -17.398163810266155, -101.1319550799746 -19.205612097594656 M-102.22950907227309 -15.020163042051207 C-101.81332890619349 -16.607238388937688, -101.39714874011389 -18.19431373582417, -101.1319550799746 -19.205612097594656 M-101.1319550799746 -19.205612097594656 C-100.85245637539651 -20.04741766371287, -100.57295767081841 -20.88922322983109, -99.76849348835884 -23.312141173438217 M-101.1319550799746 -19.205612097594656 C-100.79284671938184 -20.226952450120137, -100.4537383587891 -21.248292802645622, -99.76849348835884 -23.312141173438217 M-99.76849348835884 -23.312141173438217 C-99.19580166448733 -24.72670105064403, -98.62310984061583 -26.141260927849846, -98.14472705356735 -27.32287566076157 M-99.76849348835884 -23.312141173438217 C-99.34946162533313 -24.34715797654167, -98.93042976230741 -25.38217477964512, -98.14472705356735 -27.32287566076157 M-98.14472705356735 -27.32287566076157 C-97.45766629395625 -28.749572028839253, -96.77060553434515 -30.17626839691694, -96.26732818017751 -31.22133459125636 M-98.14472705356735 -27.32287566076157 C-97.71760581242299 -28.209802056928382, -97.29048457127861 -29.096728453095192, -96.26732818017751 -31.22133459125636 M-96.26732818017751 -31.22133459125636 C-95.47363191859499 -32.630622674157706, -94.67993565701245 -34.03991075705905, -94.14401150286086 -34.991498360960456 M-96.26732818017751 -31.22133459125636 C-95.71814662619131 -32.196462051021406, -95.16896507220513 -33.17158951078646, -94.14401150286086 -34.991498360960456 M-94.14401150286086 -34.991498360960456 C-93.49743592055592 -35.984812085235184, -92.85086033825095 -36.97812580950991, -91.78350218529452 -38.617874558246456 M-94.14401150286086 -34.991498360960456 C-93.58859764193876 -35.844763200841356, -93.03318378101666 -36.69802804072226, -91.78350218529452 -38.617874558246456 M-91.78350218529452 -38.617874558246456 C-90.89272091759769 -39.81144030511728, -90.00193964990085 -41.0050060519881, -89.19550006659202 -42.0855616254645 M-91.78350218529452 -38.617874558246456 C-91.01569360818745 -39.646668102769574, -90.24788503108037 -40.67546164729269, -89.19550006659202 -42.0855616254645 M-89.19550006659202 -42.0855616254645 C-88.62832154855633 -42.75180178612116, -88.06114303052064 -43.418041946777834, -86.39063980258382 -45.38031009263886 M-89.19550006659202 -42.0855616254645 C-88.3259370034929 -43.10699987892071, -87.45637394039377 -44.12843813237692, -86.39063980258382 -45.38031009263886 M-86.39063980258382 -45.38031009263886 C-85.7540979249616 -46.03759184234387, -85.11755604733939 -46.694873592048886, -83.38044716573538 -48.488581131596575 M-86.39063980258382 -45.38031009263886 C-85.35758579735882 -46.44702316834485, -84.32453179213383 -47.51373624405084, -83.38044716573538 -48.488581131596575 M-83.38044716573538 -48.488581131596575 C-82.30633631447697 -49.46406018729367, -81.23222546321857 -50.43953924299076, -80.17729168327577 -51.397602189916526 M-83.38044716573538 -48.488581131596575 C-82.14008895751712 -49.615041638220575, -80.89973074929888 -50.741502144844574, -80.17729168327577 -51.397602189916526 M-80.17729168327577 -51.397602189916526 C-78.89570636614768 -52.4196323759086, -77.61412104901959 -53.441662561900664, -76.7943358081571 -54.09541947608706 M-80.17729168327577 -51.397602189916526 C-79.03706138621989 -52.30690550901607, -77.89683108916402 -53.21620882811561, -76.7943358081571 -54.09541947608706 M-76.7943358081571 -54.09541947608706 C-75.84735886802116 -54.75598959555486, -74.90038192788522 -55.41655971502266, -73.24548083171207 -56.57094708019922 M-76.7943358081571 -54.09541947608706 C-75.56317709795336 -54.9542224963236, -74.33201838774963 -55.813025516560145, -73.24548083171207 -56.57094708019922 M-73.24548083171207 -56.57094708019922 C-71.78453770098548 -57.45657939150048, -70.32359457025889 -58.34221170280175, -69.54530976026581 -58.814012528328774 M-73.24548083171207 -56.57094708019922 C-72.17766209442037 -57.218265073944885, -71.10984335712867 -57.86558306769055, -69.54530976026581 -58.814012528328774 M-69.54530976026581 -58.814012528328774 C-68.21743952463453 -59.506761579716134, -66.88956928900326 -60.19951063110349, -65.7090273904352 -60.815398583413284 M-69.54530976026581 -58.814012528328774 C-68.43021769386107 -59.39575534512158, -67.31512562745631 -59.977498161914376, -65.7090273904352 -60.815398583413284 M-65.7090273904352 -60.815398583413284 C-64.24042752451543 -61.46550417958879, -62.77182765859565 -62.1156097757643, -61.75239782935779 -62.56688112085645 M-65.7090273904352 -60.815398583413284 C-64.13170788999226 -61.51363113673882, -62.5543883895493 -62.21186369006437, -61.75239782935779 -62.56688112085645 M-61.75239782935779 -62.56688112085645 C-60.57688153700387 -62.99948198279618, -59.40136524464995 -63.43208284473591, -57.69167971659445 -64.06126292322011 M-61.75239782935779 -62.56688112085645 C-60.481675608616335 -63.03451864451675, -59.21095338787488 -63.50215616817705, -57.69167971659445 -64.06126292322011 M-57.69167971659445 -64.06126292322011 C-56.28256292535999 -64.47948139025353, -54.87344613412553 -64.89769985728694, -53.54355941389181 -65.29240325513446 M-57.69167971659445 -64.06126292322011 C-56.58058215910756 -64.39103084601213, -55.469484601620664 -64.72079876880414, -53.54355941389181 -65.29240325513446 M-53.54355941389181 -65.29240325513446 C-52.10874979315546 -65.61988918805974, -50.6739401724191 -65.94737512098503, -49.32508243734266 -66.2552430968969 M-53.54355941389181 -65.29240325513446 C-52.650565202667586 -65.49622335651458, -51.75757099144336 -65.70004345789468, -49.32508243734266 -66.2552430968969 M-49.32508243734266 -66.2552430968969 C-48.029096609813415 -66.46476803497164, -46.73311078228417 -66.67429297304636, -45.0535834137042 -66.9458259330691 M-49.32508243734266 -66.2552430968969 C-48.01036200670271 -66.46779690031356, -46.69564157606276 -66.68035070373021, -45.0535834137042 -66.9458259330691 M-45.0535834137042 -66.9458259330691 C-43.465449188434064 -67.09903133177006, -41.877314963163926 -67.25223673047103, -40.74661484869812 -67.3613140106477 M-45.0535834137042 -66.9458259330691 C-43.63078328138408 -67.08308175066651, -42.20798314906397 -67.22033756826393, -40.74661484869812 -67.3613140106477 M-40.74661484869812 -67.3613140106477 C-39.74744447235619 -67.39335545984983, -38.74827409601426 -67.42539690905197, -36.42187500000002 -67.5 M-40.74661484869812 -67.3613140106477 C-39.05965587856298 -67.4154115013535, -37.372696908427834 -67.46950899205929, -36.42187500000002 -67.5 M-36.42187500000002 -67.5 C-36.421875000000014 -67.5, -36.42187500000001 -67.5, -36.421875 -67.5 M-36.42187500000002 -67.5 C-36.421875000000014 -67.5, -36.421875000000014 -67.5, -36.421875 -67.5" stroke="#65497c" stroke-width="1.3" fill="none" stroke-dasharray="0 0" style="fill:#9673a6 !important;stroke:#65497c !important"/></g><g class="label" style="color:#fff !important" transform="translate(-79.546875, -60)"><rect/><foreignObject width="159.09375" height="120"><div style="color: rgb(255, 255, 255) !important; display: table-cell; white-space: nowrap; line-height: 1.5; max-width: 200px; text-align: center;" xmlns="http://www.w3.org/1999/xhtml"><span style="color:#fff !important" class="nodeLabel"><p><b>Kafka / Redpanda</b><br />outbox-relay,<br />orders.events,<br />payments.events,<br />notifications.dlq</p></span></div></foreignObject></g></g><g class="node default data" id="my-svg-flowchart-s3-16" data-look="classic" transform="translate(2306.6232833862305, 984.2132415771484)"><path d="M0,14.702929516552539 a89.2421875,14.702929516552539 0,0,0 178.484375,0 a89.2421875,14.702929516552539 0,0,0 -178.484375,0 l0,125.70292951655254 a89.2421875,14.702929516552539 0,0,0 178.484375,0 l0,-125.70292951655254" class="basic label-container outer-path" style="fill:#f3b415 !important;stroke:#b28100 !important" transform="translate(-89.2421875, -77.55439427482881)"/><g class="label" style="color:#000 !important" transform="translate(-81.7421875, -38)"><rect/><foreignObject width="163.484375" height="96"><div style="color: rgb(0, 0, 0) !important; display: table-cell; white-space: nowrap; line-height: 1.5; max-width: 200px; text-align: center;" xmlns="http://www.w3.org/1999/xhtml"><span style="color:#000 !important" class="nodeLabel"><p><b>S3 Object Storage</b><br />фото блюд,<br />presigned upload,<br />репликация ≥ 2 AZ</p></span></div></foreignObject></g></g><g class="node default" id="my-svg-flowchart-outbox-53" data-look="classic" transform="translate(112.9375, 608)"><rect class="basic label-container" style="" x="-104.9375" y="-39" width="209.875" height="78"/><g class="label" style="" transform="translate(-74.9375, -24)"><rect/><foreignObject width="149.875" height="48"><div xmlns="http://www.w3.org/1999/xhtml" style="display: table-cell; white-space: nowrap; line-height: 1.5; max-width: 200px; text-align: center;"><span class="nodeLabel"><p><i>Outbox Relay</i><br />Debezium / polling</p></span></div></foreignObject></g></g></g></g></g><defs><filter id="my-svg-drop-shadow" height="130%" width="130%"><feDropShadow dx="4" dy="4" stdDeviation="0" flood-opacity="0.06" flood-color="#000000"/></filter></defs><defs><filter id="my-svg-drop-shadow-small" height="150%" width="150%"><feDropShadow dx="2" dy="2" stdDeviation="0" flood-opacity="0.06" flood-color="#000000"/></filter></defs></svg>